<svg width="425" height="86" viewBox="0 0 425 86" fill="none" xmlns="http://www.w3.org/2000/svg">
<g filter="url(#filter0_d_652_1574)">
<rect x="6.69922" y="2.7002" width="411" height="72" rx="36" fill="#3CE5A7"/>
<path d="M80.207 42.2354C80.207 41.9307 80.1602 41.6572 80.0664 41.415C79.9805 41.165 79.8164 40.9385 79.5742 40.7354C79.332 40.5244 78.9922 40.3174 78.5547 40.1143C78.1172 39.9111 77.5508 39.7002 76.8555 39.4814C76.082 39.2314 75.3477 38.9502 74.6523 38.6377C73.9648 38.3252 73.3555 37.9619 72.8242 37.5479C72.3008 37.126 71.8867 36.6377 71.582 36.083C71.2852 35.5283 71.1367 34.8838 71.1367 34.1494C71.1367 33.4385 71.293 32.7939 71.6055 32.2158C71.918 31.6299 72.3555 31.1299 72.918 30.7158C73.4805 30.2939 74.1445 29.9697 74.9102 29.7432C75.6836 29.5166 76.5312 29.4033 77.4531 29.4033C78.7109 29.4033 79.8086 29.6299 80.7461 30.083C81.6836 30.5361 82.4102 31.1572 82.9258 31.9463C83.4492 32.7354 83.7109 33.6377 83.7109 34.6533H80.2188C80.2188 34.1533 80.1133 33.7158 79.9023 33.3408C79.6992 32.958 79.3867 32.6572 78.9648 32.4385C78.5508 32.2197 78.0273 32.1104 77.3945 32.1104C76.7852 32.1104 76.2773 32.2041 75.8711 32.3916C75.4648 32.5713 75.1602 32.8174 74.957 33.1299C74.7539 33.4346 74.6523 33.7783 74.6523 34.1611C74.6523 34.4502 74.7227 34.7119 74.8633 34.9463C75.0117 35.1807 75.2305 35.3994 75.5195 35.6025C75.8086 35.8057 76.1641 35.9971 76.5859 36.1768C77.0078 36.3564 77.4961 36.5322 78.0508 36.7041C78.9805 36.9854 79.7969 37.3018 80.5 37.6533C81.2109 38.0049 81.8047 38.3994 82.2812 38.8369C82.7578 39.2744 83.1172 39.7705 83.3594 40.3252C83.6016 40.8799 83.7227 41.5088 83.7227 42.2119C83.7227 42.9541 83.5781 43.6182 83.2891 44.2041C83 44.79 82.582 45.2861 82.0352 45.6924C81.4883 46.0986 80.8359 46.4072 80.0781 46.6182C79.3203 46.8291 78.4727 46.9346 77.5352 46.9346C76.6914 46.9346 75.8594 46.8252 75.0391 46.6064C74.2188 46.3799 73.4727 46.04 72.8008 45.5869C72.1367 45.1338 71.6055 44.5557 71.207 43.8525C70.8086 43.1494 70.6094 42.3174 70.6094 41.3564H74.1367C74.1367 41.8877 74.2188 42.3369 74.3828 42.7041C74.5469 43.0713 74.7773 43.3682 75.0742 43.5947C75.3789 43.8213 75.7383 43.9854 76.1523 44.0869C76.5742 44.1885 77.0352 44.2393 77.5352 44.2393C78.1445 44.2393 78.6445 44.1533 79.0352 43.9814C79.4336 43.8096 79.7266 43.5713 79.9141 43.2666C80.1094 42.9619 80.207 42.6182 80.207 42.2354ZM92.1133 34.0205V36.4111H84.7305V34.0205H92.1133ZM86.5586 30.8916H89.9336V42.8799C89.9336 43.2471 89.9805 43.5283 90.0742 43.7236C90.1758 43.9189 90.3242 44.0557 90.5195 44.1338C90.7148 44.2041 90.9609 44.2393 91.2578 44.2393C91.4688 44.2393 91.6562 44.2314 91.8203 44.2158C91.9922 44.1924 92.1367 44.1689 92.2539 44.1455L92.2656 46.6299C91.9766 46.7236 91.6641 46.7979 91.3281 46.8525C90.9922 46.9072 90.6211 46.9346 90.2148 46.9346C89.4727 46.9346 88.8242 46.8135 88.2695 46.5713C87.7227 46.3213 87.3008 45.9229 87.0039 45.376C86.707 44.8291 86.5586 44.1104 86.5586 43.2197V30.8916ZM100.879 43.8408V38.1924C100.879 37.7861 100.812 37.4385 100.68 37.1494C100.547 36.8525 100.34 36.6221 100.059 36.458C99.7852 36.2939 99.4297 36.2119 98.9922 36.2119C98.6172 36.2119 98.293 36.2783 98.0195 36.4111C97.7461 36.5361 97.5352 36.7197 97.3867 36.9619C97.2383 37.1963 97.1641 37.4736 97.1641 37.7939H93.7891C93.7891 37.2549 93.9141 36.7432 94.1641 36.2588C94.4141 35.7744 94.7773 35.3486 95.2539 34.9814C95.7305 34.6064 96.2969 34.3135 96.9531 34.1025C97.6172 33.8916 98.3594 33.7861 99.1797 33.7861C100.164 33.7861 101.039 33.9502 101.805 34.2783C102.57 34.6064 103.172 35.0986 103.609 35.7549C104.055 36.4111 104.277 37.2314 104.277 38.2158V43.6416C104.277 44.3369 104.32 44.9072 104.406 45.3525C104.492 45.79 104.617 46.1729 104.781 46.501V46.7002H101.371C101.207 46.3564 101.082 45.9268 100.996 45.4111C100.918 44.8877 100.879 44.3643 100.879 43.8408ZM101.324 38.9775L101.348 40.8877H99.4609C99.0156 40.8877 98.6289 40.9385 98.3008 41.04C97.9727 41.1416 97.7031 41.2861 97.4922 41.4736C97.2812 41.6533 97.125 41.8643 97.0234 42.1064C96.9297 42.3486 96.8828 42.6143 96.8828 42.9033C96.8828 43.1924 96.9492 43.4541 97.082 43.6885C97.2148 43.915 97.4062 44.0947 97.6562 44.2275C97.9062 44.3525 98.1992 44.415 98.5352 44.415C99.043 44.415 99.4844 44.3135 99.8594 44.1104C100.234 43.9072 100.523 43.6572 100.727 43.3604C100.938 43.0635 101.047 42.7822 101.055 42.5166L101.945 43.9463C101.82 44.2666 101.648 44.5986 101.43 44.9424C101.219 45.2861 100.949 45.6104 100.621 45.915C100.293 46.2119 99.8984 46.458 99.4375 46.6533C98.9766 46.8408 98.4297 46.9346 97.7969 46.9346C96.9922 46.9346 96.2617 46.7744 95.6055 46.4541C94.957 46.126 94.4414 45.6768 94.0586 45.1064C93.6836 44.5283 93.4961 43.8721 93.4961 43.1377C93.4961 42.4736 93.6211 41.8838 93.8711 41.3682C94.1211 40.8525 94.4883 40.4189 94.9727 40.0674C95.4648 39.708 96.0781 39.4385 96.8125 39.2588C97.5469 39.0713 98.3984 38.9775 99.3672 38.9775H101.324ZM110.254 36.7861V46.7002H106.879V34.0205H110.055L110.254 36.7861ZM114.074 33.9385L114.016 37.0674C113.852 37.0439 113.652 37.0244 113.418 37.0088C113.191 36.9854 112.984 36.9736 112.797 36.9736C112.32 36.9736 111.906 37.0361 111.555 37.1611C111.211 37.2783 110.922 37.4541 110.688 37.6885C110.461 37.9229 110.289 38.208 110.172 38.5439C110.062 38.8799 110 39.2627 109.984 39.6924L109.305 39.4814C109.305 38.6611 109.387 37.9072 109.551 37.2197C109.715 36.5244 109.953 35.9189 110.266 35.4033C110.586 34.8877 110.977 34.4893 111.438 34.208C111.898 33.9268 112.426 33.7861 113.02 33.7861C113.207 33.7861 113.398 33.8018 113.594 33.833C113.789 33.8564 113.949 33.8916 114.074 33.9385ZM122.465 34.0205V36.4111H115.082V34.0205H122.465ZM116.91 30.8916H120.285V42.8799C120.285 43.2471 120.332 43.5283 120.426 43.7236C120.527 43.9189 120.676 44.0557 120.871 44.1338C121.066 44.2041 121.312 44.2393 121.609 44.2393C121.82 44.2393 122.008 44.2314 122.172 44.2158C122.344 44.1924 122.488 44.1689 122.605 44.1455L122.617 46.6299C122.328 46.7236 122.016 46.7979 121.68 46.8525C121.344 46.9072 120.973 46.9346 120.566 46.9346C119.824 46.9346 119.176 46.8135 118.621 46.5713C118.074 46.3213 117.652 45.9229 117.355 45.376C117.059 44.8291 116.91 44.1104 116.91 43.2197V30.8916ZM132.918 29.6377L136.48 37.4189L140.043 29.6377H143.875L138.262 40.4893V46.7002H134.699V40.4893L129.074 29.6377H132.918ZM143.91 40.4893V40.2432C143.91 39.3135 144.043 38.458 144.309 37.6768C144.574 36.8877 144.961 36.2041 145.469 35.626C145.977 35.0479 146.602 34.5986 147.344 34.2783C148.086 33.9502 148.938 33.7861 149.898 33.7861C150.859 33.7861 151.715 33.9502 152.465 34.2783C153.215 34.5986 153.844 35.0479 154.352 35.626C154.867 36.2041 155.258 36.8877 155.523 37.6768C155.789 38.458 155.922 39.3135 155.922 40.2432V40.4893C155.922 41.4111 155.789 42.2666 155.523 43.0557C155.258 43.8369 154.867 44.5205 154.352 45.1064C153.844 45.6846 153.219 46.1338 152.477 46.4541C151.734 46.7744 150.883 46.9346 149.922 46.9346C148.961 46.9346 148.105 46.7744 147.355 46.4541C146.613 46.1338 145.984 45.6846 145.469 45.1064C144.961 44.5205 144.574 43.8369 144.309 43.0557C144.043 42.2666 143.91 41.4111 143.91 40.4893ZM147.285 40.2432V40.4893C147.285 41.0205 147.332 41.5166 147.426 41.9775C147.52 42.4385 147.668 42.8447 147.871 43.1963C148.082 43.54 148.355 43.8096 148.691 44.0049C149.027 44.2002 149.438 44.2979 149.922 44.2979C150.391 44.2979 150.793 44.2002 151.129 44.0049C151.465 43.8096 151.734 43.54 151.938 43.1963C152.141 42.8447 152.289 42.4385 152.383 41.9775C152.484 41.5166 152.535 41.0205 152.535 40.4893V40.2432C152.535 39.7275 152.484 39.2432 152.383 38.79C152.289 38.3291 152.137 37.9229 151.926 37.5713C151.723 37.2119 151.453 36.9307 151.117 36.7275C150.781 36.5244 150.375 36.4229 149.898 36.4229C149.422 36.4229 149.016 36.5244 148.68 36.7275C148.352 36.9307 148.082 37.2119 147.871 37.5713C147.668 37.9229 147.52 38.3291 147.426 38.79C147.332 39.2432 147.285 39.7275 147.285 40.2432ZM165.496 43.665V34.0205H168.871V46.7002H165.695L165.496 43.665ZM165.871 41.0635L166.867 41.04C166.867 41.8838 166.77 42.6689 166.574 43.3955C166.379 44.1143 166.086 44.7393 165.695 45.2705C165.305 45.7939 164.812 46.2041 164.219 46.501C163.625 46.79 162.926 46.9346 162.121 46.9346C161.504 46.9346 160.934 46.8486 160.41 46.6768C159.895 46.4971 159.449 46.2197 159.074 45.8447C158.707 45.4619 158.418 44.9736 158.207 44.3799C158.004 43.7783 157.902 43.0557 157.902 42.2119V34.0205H161.277V42.2354C161.277 42.6104 161.32 42.9268 161.406 43.1846C161.5 43.4424 161.629 43.6533 161.793 43.8174C161.957 43.9814 162.148 44.0986 162.367 44.1689C162.594 44.2393 162.844 44.2744 163.117 44.2744C163.812 44.2744 164.359 44.1338 164.758 43.8525C165.164 43.5713 165.449 43.1885 165.613 42.7041C165.785 42.2119 165.871 41.665 165.871 41.0635ZM174.824 36.7861V46.7002H171.449V34.0205H174.625L174.824 36.7861ZM178.645 33.9385L178.586 37.0674C178.422 37.0439 178.223 37.0244 177.988 37.0088C177.762 36.9854 177.555 36.9736 177.367 36.9736C176.891 36.9736 176.477 37.0361 176.125 37.1611C175.781 37.2783 175.492 37.4541 175.258 37.6885C175.031 37.9229 174.859 38.208 174.742 38.5439C174.633 38.8799 174.57 39.2627 174.555 39.6924L173.875 39.4814C173.875 38.6611 173.957 37.9072 174.121 37.2197C174.285 36.5244 174.523 35.9189 174.836 35.4033C175.156 34.8877 175.547 34.4893 176.008 34.208C176.469 33.9268 176.996 33.7861 177.59 33.7861C177.777 33.7861 177.969 33.8018 178.164 33.833C178.359 33.8564 178.52 33.8916 178.645 33.9385ZM193.363 32.5557L188.723 46.7002H184.984L191.324 29.6377H193.703L193.363 32.5557ZM197.219 46.7002L192.566 32.5557L192.191 29.6377H194.594L200.969 46.7002H197.219ZM197.008 40.3486V43.1025H187.996V40.3486H197.008ZM205.34 36.458V51.5752H201.965V34.0205H205.094L205.34 36.458ZM213.367 40.2197V40.4658C213.367 41.3877 213.258 42.2432 213.039 43.0322C212.828 43.8213 212.516 44.5088 212.102 45.0947C211.688 45.6729 211.172 46.126 210.555 46.4541C209.945 46.7744 209.242 46.9346 208.445 46.9346C207.672 46.9346 207 46.7783 206.43 46.4658C205.859 46.1533 205.379 45.7158 204.988 45.1533C204.605 44.583 204.297 43.9229 204.062 43.1729C203.828 42.4229 203.648 41.6182 203.523 40.7588V40.1143C203.648 39.1924 203.828 38.3486 204.062 37.583C204.297 36.8096 204.605 36.1416 204.988 35.5791C205.379 35.0088 205.855 34.5674 206.418 34.2549C206.988 33.9424 207.656 33.7861 208.422 33.7861C209.227 33.7861 209.934 33.9385 210.543 34.2432C211.16 34.5479 211.676 34.9854 212.09 35.5557C212.512 36.126 212.828 36.8057 213.039 37.5947C213.258 38.3838 213.367 39.2588 213.367 40.2197ZM209.98 40.4658V40.2197C209.98 39.6807 209.934 39.1846 209.84 38.7314C209.754 38.2705 209.613 37.8682 209.418 37.5244C209.23 37.1807 208.98 36.915 208.668 36.7275C208.363 36.5322 207.992 36.4346 207.555 36.4346C207.094 36.4346 206.699 36.5088 206.371 36.6572C206.051 36.8057 205.789 37.0205 205.586 37.3018C205.383 37.583 205.23 37.9189 205.129 38.3096C205.027 38.7002 204.965 39.1416 204.941 39.6338V41.2627C204.98 41.8408 205.09 42.3604 205.27 42.8213C205.449 43.2744 205.727 43.6338 206.102 43.8994C206.477 44.165 206.969 44.2979 207.578 44.2979C208.023 44.2979 208.398 44.2002 208.703 44.0049C209.008 43.8018 209.254 43.5244 209.441 43.1729C209.637 42.8213 209.773 42.415 209.852 41.9541C209.938 41.4932 209.98 40.9971 209.98 40.4658ZM218.84 36.458V51.5752H215.465V34.0205H218.594L218.84 36.458ZM226.867 40.2197V40.4658C226.867 41.3877 226.758 42.2432 226.539 43.0322C226.328 43.8213 226.016 44.5088 225.602 45.0947C225.188 45.6729 224.672 46.126 224.055 46.4541C223.445 46.7744 222.742 46.9346 221.945 46.9346C221.172 46.9346 220.5 46.7783 219.93 46.4658C219.359 46.1533 218.879 45.7158 218.488 45.1533C218.105 44.583 217.797 43.9229 217.562 43.1729C217.328 42.4229 217.148 41.6182 217.023 40.7588V40.1143C217.148 39.1924 217.328 38.3486 217.562 37.583C217.797 36.8096 218.105 36.1416 218.488 35.5791C218.879 35.0088 219.355 34.5674 219.918 34.2549C220.488 33.9424 221.156 33.7861 221.922 33.7861C222.727 33.7861 223.434 33.9385 224.043 34.2432C224.66 34.5479 225.176 34.9854 225.59 35.5557C226.012 36.126 226.328 36.8057 226.539 37.5947C226.758 38.3838 226.867 39.2588 226.867 40.2197ZM223.48 40.4658V40.2197C223.48 39.6807 223.434 39.1846 223.34 38.7314C223.254 38.2705 223.113 37.8682 222.918 37.5244C222.73 37.1807 222.48 36.915 222.168 36.7275C221.863 36.5322 221.492 36.4346 221.055 36.4346C220.594 36.4346 220.199 36.5088 219.871 36.6572C219.551 36.8057 219.289 37.0205 219.086 37.3018C218.883 37.583 218.73 37.9189 218.629 38.3096C218.527 38.7002 218.465 39.1416 218.441 39.6338V41.2627C218.48 41.8408 218.59 42.3604 218.77 42.8213C218.949 43.2744 219.227 43.6338 219.602 43.8994C219.977 44.165 220.469 44.2979 221.078 44.2979C221.523 44.2979 221.898 44.2002 222.203 44.0049C222.508 43.8018 222.754 43.5244 222.941 43.1729C223.137 42.8213 223.273 42.415 223.352 41.9541C223.438 41.4932 223.48 40.9971 223.48 40.4658ZM232.527 28.7002V46.7002H229.141V28.7002H232.527ZM238.879 34.0205V46.7002H235.492V34.0205H238.879ZM235.281 30.7158C235.281 30.2236 235.453 29.8174 235.797 29.4971C236.141 29.1768 236.602 29.0166 237.18 29.0166C237.75 29.0166 238.207 29.1768 238.551 29.4971C238.902 29.8174 239.078 30.2236 239.078 30.7158C239.078 31.208 238.902 31.6143 238.551 31.9346C238.207 32.2549 237.75 32.415 237.18 32.415C236.602 32.415 236.141 32.2549 235.797 31.9346C235.453 31.6143 235.281 31.208 235.281 30.7158ZM246.906 44.2979C247.32 44.2979 247.688 44.2197 248.008 44.0635C248.328 43.8994 248.578 43.6729 248.758 43.3838C248.945 43.0869 249.043 42.7393 249.051 42.3408H252.227C252.219 43.2314 251.98 44.0244 251.512 44.7197C251.043 45.4072 250.414 45.9502 249.625 46.3486C248.836 46.7393 247.953 46.9346 246.977 46.9346C245.992 46.9346 245.133 46.7705 244.398 46.4424C243.672 46.1143 243.066 45.6611 242.582 45.083C242.098 44.4971 241.734 43.8174 241.492 43.0439C241.25 42.2627 241.129 41.4268 241.129 40.5361V40.1963C241.129 39.2979 241.25 38.4619 241.492 37.6885C241.734 36.9072 242.098 36.2275 242.582 35.6494C243.066 35.0635 243.672 34.6064 244.398 34.2783C245.125 33.9502 245.977 33.7861 246.953 33.7861C247.992 33.7861 248.902 33.9854 249.684 34.3838C250.473 34.7822 251.09 35.3525 251.535 36.0947C251.988 36.8291 252.219 37.7002 252.227 38.708H249.051C249.043 38.2861 248.953 37.9033 248.781 37.5596C248.617 37.2158 248.375 36.9424 248.055 36.7393C247.742 36.5283 247.355 36.4229 246.895 36.4229C246.402 36.4229 246 36.5283 245.688 36.7393C245.375 36.9424 245.133 37.2236 244.961 37.583C244.789 37.9346 244.668 38.3369 244.598 38.79C244.535 39.2354 244.504 39.7041 244.504 40.1963V40.5361C244.504 41.0283 244.535 41.501 244.598 41.9541C244.66 42.4072 244.777 42.8096 244.949 43.1611C245.129 43.5127 245.375 43.79 245.688 43.9932C246 44.1963 246.406 44.2979 246.906 44.2979ZM261.027 43.8408V38.1924C261.027 37.7861 260.961 37.4385 260.828 37.1494C260.695 36.8525 260.488 36.6221 260.207 36.458C259.934 36.2939 259.578 36.2119 259.141 36.2119C258.766 36.2119 258.441 36.2783 258.168 36.4111C257.895 36.5361 257.684 36.7197 257.535 36.9619C257.387 37.1963 257.312 37.4736 257.312 37.7939H253.938C253.938 37.2549 254.062 36.7432 254.312 36.2588C254.562 35.7744 254.926 35.3486 255.402 34.9814C255.879 34.6064 256.445 34.3135 257.102 34.1025C257.766 33.8916 258.508 33.7861 259.328 33.7861C260.312 33.7861 261.188 33.9502 261.953 34.2783C262.719 34.6064 263.32 35.0986 263.758 35.7549C264.203 36.4111 264.426 37.2314 264.426 38.2158V43.6416C264.426 44.3369 264.469 44.9072 264.555 45.3525C264.641 45.79 264.766 46.1729 264.93 46.501V46.7002H261.52C261.355 46.3564 261.23 45.9268 261.145 45.4111C261.066 44.8877 261.027 44.3643 261.027 43.8408ZM261.473 38.9775L261.496 40.8877H259.609C259.164 40.8877 258.777 40.9385 258.449 41.04C258.121 41.1416 257.852 41.2861 257.641 41.4736C257.43 41.6533 257.273 41.8643 257.172 42.1064C257.078 42.3486 257.031 42.6143 257.031 42.9033C257.031 43.1924 257.098 43.4541 257.23 43.6885C257.363 43.915 257.555 44.0947 257.805 44.2275C258.055 44.3525 258.348 44.415 258.684 44.415C259.191 44.415 259.633 44.3135 260.008 44.1104C260.383 43.9072 260.672 43.6572 260.875 43.3604C261.086 43.0635 261.195 42.7822 261.203 42.5166L262.094 43.9463C261.969 44.2666 261.797 44.5986 261.578 44.9424C261.367 45.2861 261.098 45.6104 260.77 45.915C260.441 46.2119 260.047 46.458 259.586 46.6533C259.125 46.8408 258.578 46.9346 257.945 46.9346C257.141 46.9346 256.41 46.7744 255.754 46.4541C255.105 46.126 254.59 45.6768 254.207 45.1064C253.832 44.5283 253.645 43.8721 253.645 43.1377C253.645 42.4736 253.77 41.8838 254.02 41.3682C254.27 40.8525 254.637 40.4189 255.121 40.0674C255.613 39.708 256.227 39.4385 256.961 39.2588C257.695 39.0713 258.547 38.9775 259.516 38.9775H261.473ZM273.238 34.0205V36.4111H265.855V34.0205H273.238ZM267.684 30.8916H271.059V42.8799C271.059 43.2471 271.105 43.5283 271.199 43.7236C271.301 43.9189 271.449 44.0557 271.645 44.1338C271.84 44.2041 272.086 44.2393 272.383 44.2393C272.594 44.2393 272.781 44.2314 272.945 44.2158C273.117 44.1924 273.262 44.1689 273.379 44.1455L273.391 46.6299C273.102 46.7236 272.789 46.7979 272.453 46.8525C272.117 46.9072 271.746 46.9346 271.34 46.9346C270.598 46.9346 269.949 46.8135 269.395 46.5713C268.848 46.3213 268.426 45.9229 268.129 45.376C267.832 44.8291 267.684 44.1104 267.684 43.2197V30.8916ZM278.723 34.0205V46.7002H275.336V34.0205H278.723ZM275.125 30.7158C275.125 30.2236 275.297 29.8174 275.641 29.4971C275.984 29.1768 276.445 29.0166 277.023 29.0166C277.594 29.0166 278.051 29.1768 278.395 29.4971C278.746 29.8174 278.922 30.2236 278.922 30.7158C278.922 31.208 278.746 31.6143 278.395 31.9346C278.051 32.2549 277.594 32.415 277.023 32.415C276.445 32.415 275.984 32.2549 275.641 31.9346C275.297 31.6143 275.125 31.208 275.125 30.7158ZM280.973 40.4893V40.2432C280.973 39.3135 281.105 38.458 281.371 37.6768C281.637 36.8877 282.023 36.2041 282.531 35.626C283.039 35.0479 283.664 34.5986 284.406 34.2783C285.148 33.9502 286 33.7861 286.961 33.7861C287.922 33.7861 288.777 33.9502 289.527 34.2783C290.277 34.5986 290.906 35.0479 291.414 35.626C291.93 36.2041 292.32 36.8877 292.586 37.6768C292.852 38.458 292.984 39.3135 292.984 40.2432V40.4893C292.984 41.4111 292.852 42.2666 292.586 43.0557C292.32 43.8369 291.93 44.5205 291.414 45.1064C290.906 45.6846 290.281 46.1338 289.539 46.4541C288.797 46.7744 287.945 46.9346 286.984 46.9346C286.023 46.9346 285.168 46.7744 284.418 46.4541C283.676 46.1338 283.047 45.6846 282.531 45.1064C282.023 44.5205 281.637 43.8369 281.371 43.0557C281.105 42.2666 280.973 41.4111 280.973 40.4893ZM284.348 40.2432V40.4893C284.348 41.0205 284.395 41.5166 284.488 41.9775C284.582 42.4385 284.73 42.8447 284.934 43.1963C285.145 43.54 285.418 43.8096 285.754 44.0049C286.09 44.2002 286.5 44.2979 286.984 44.2979C287.453 44.2979 287.855 44.2002 288.191 44.0049C288.527 43.8096 288.797 43.54 289 43.1963C289.203 42.8447 289.352 42.4385 289.445 41.9775C289.547 41.5166 289.598 41.0205 289.598 40.4893V40.2432C289.598 39.7275 289.547 39.2432 289.445 38.79C289.352 38.3291 289.199 37.9229 288.988 37.5713C288.785 37.2119 288.516 36.9307 288.18 36.7275C287.844 36.5244 287.438 36.4229 286.961 36.4229C286.484 36.4229 286.078 36.5244 285.742 36.7275C285.414 36.9307 285.145 37.2119 284.934 37.5713C284.73 37.9229 284.582 38.3291 284.488 38.79C284.395 39.2432 284.348 39.7275 284.348 40.2432ZM298.363 36.7275V46.7002H294.988V34.0205H298.152L298.363 36.7275ZM297.871 39.915H296.957C296.957 38.9775 297.078 38.1338 297.32 37.3838C297.562 36.626 297.902 35.9814 298.34 35.4502C298.777 34.9111 299.297 34.501 299.898 34.2197C300.508 33.9307 301.188 33.7861 301.938 33.7861C302.531 33.7861 303.074 33.8721 303.566 34.0439C304.059 34.2158 304.48 34.4893 304.832 34.8643C305.191 35.2393 305.465 35.7354 305.652 36.3525C305.848 36.9697 305.945 37.7236 305.945 38.6143V46.7002H302.547V38.6025C302.547 38.04 302.469 37.6025 302.312 37.29C302.156 36.9775 301.926 36.7588 301.621 36.6338C301.324 36.501 300.957 36.4346 300.52 36.4346C300.066 36.4346 299.672 36.5244 299.336 36.7041C299.008 36.8838 298.734 37.1338 298.516 37.4541C298.305 37.7666 298.145 38.1338 298.035 38.5557C297.926 38.9775 297.871 39.4307 297.871 39.915Z" fill="#021859"/>
<path fill-rule="evenodd" clip-rule="evenodd" d="M354.722 39.8667L345.503 49.2002L343.199 46.8672L351.266 38.7002L343.199 30.5332L345.503 28.2002L354.722 37.5337C355.028 37.8431 355.199 38.2627 355.199 38.7002C355.199 39.1377 355.028 39.5573 354.722 39.8667Z" fill="#021859"/>
</g>
<defs>
<filter id="filter0_d_652_1574" x="-0.000781059" y="0.000195503" width="424.4" height="85.4" filterUnits="userSpaceOnUse" color-interpolation-filters="sRGB">
<feFlood flood-opacity="0" result="BackgroundImageFix"/>
<feColorMatrix in="SourceAlpha" type="matrix" values="0 0 0 0 0 0 0 0 0 0 0 0 0 0 0 0 0 0 127 0" result="hardAlpha"/>
<feOffset dy="4"/>
<feGaussianBlur stdDeviation="3.35"/>
<feComposite in2="hardAlpha" operator="out"/>
<feColorMatrix type="matrix" values="0 0 0 0 0 0 0 0 0 0 0 0 0 0 0 0 0 0 0.17 0"/>
<feBlend mode="normal" in2="BackgroundImageFix" result="effect1_dropShadow_652_1574"/>
<feBlend mode="normal" in="SourceGraphic" in2="effect1_dropShadow_652_1574" result="shape"/>
</filter>
</defs>
</svg>
