<svg width="354" height="74" viewBox="0 0 354 74" fill="none" xmlns="http://www.w3.org/2000/svg">
<rect width="354" height="74" rx="37" fill="#3CE5A7"/>
<path d="M52.5078 40.5352C52.5078 40.2305 52.4609 39.957 52.3672 39.7148C52.2812 39.4648 52.1172 39.2383 51.875 39.0352C51.6328 38.8242 51.293 38.6172 50.8555 38.4141C50.418 38.2109 49.8516 38 49.1562 37.7812C48.3828 37.5312 47.6484 37.25 46.9531 36.9375C46.2656 36.625 45.6562 36.2617 45.125 35.8477C44.6016 35.4258 44.1875 34.9375 43.8828 34.3828C43.5859 33.8281 43.4375 33.1836 43.4375 32.4492C43.4375 31.7383 43.5938 31.0938 43.9062 30.5156C44.2188 29.9297 44.6562 29.4297 45.2188 29.0156C45.7812 28.5938 46.4453 28.2695 47.2109 28.043C47.9844 27.8164 48.832 27.7031 49.7539 27.7031C51.0117 27.7031 52.1094 27.9297 53.0469 28.3828C53.9844 28.8359 54.7109 29.457 55.2266 30.2461C55.75 31.0352 56.0117 31.9375 56.0117 32.9531H52.5195C52.5195 32.4531 52.4141 32.0156 52.2031 31.6406C52 31.2578 51.6875 30.957 51.2656 30.7383C50.8516 30.5195 50.3281 30.4102 49.6953 30.4102C49.0859 30.4102 48.5781 30.5039 48.1719 30.6914C47.7656 30.8711 47.4609 31.1172 47.2578 31.4297C47.0547 31.7344 46.9531 32.0781 46.9531 32.4609C46.9531 32.75 47.0234 33.0117 47.1641 33.2461C47.3125 33.4805 47.5312 33.6992 47.8203 33.9023C48.1094 34.1055 48.4648 34.2969 48.8867 34.4766C49.3086 34.6562 49.7969 34.832 50.3516 35.0039C51.2812 35.2852 52.0977 35.6016 52.8008 35.9531C53.5117 36.3047 54.1055 36.6992 54.582 37.1367C55.0586 37.5742 55.418 38.0703 55.6602 38.625C55.9023 39.1797 56.0234 39.8086 56.0234 40.5117C56.0234 41.2539 55.8789 41.918 55.5898 42.5039C55.3008 43.0898 54.8828 43.5859 54.3359 43.9922C53.7891 44.3984 53.1367 44.707 52.3789 44.918C51.6211 45.1289 50.7734 45.2344 49.8359 45.2344C48.9922 45.2344 48.1602 45.125 47.3398 44.9062C46.5195 44.6797 45.7734 44.3398 45.1016 43.8867C44.4375 43.4336 43.9062 42.8555 43.5078 42.1523C43.1094 41.4492 42.9102 40.6172 42.9102 39.6562H46.4375C46.4375 40.1875 46.5195 40.6367 46.6836 41.0039C46.8477 41.3711 47.0781 41.668 47.375 41.8945C47.6797 42.1211 48.0391 42.2852 48.4531 42.3867C48.875 42.4883 49.3359 42.5391 49.8359 42.5391C50.4453 42.5391 50.9453 42.4531 51.3359 42.2812C51.7344 42.1094 52.0273 41.8711 52.2148 41.5664C52.4102 41.2617 52.5078 40.918 52.5078 40.5352ZM64.4141 32.3203V34.7109H57.0312V32.3203H64.4141ZM58.8594 29.1914H62.2344V41.1797C62.2344 41.5469 62.2812 41.8281 62.375 42.0234C62.4766 42.2188 62.625 42.3555 62.8203 42.4336C63.0156 42.5039 63.2617 42.5391 63.5586 42.5391C63.7695 42.5391 63.957 42.5312 64.1211 42.5156C64.293 42.4922 64.4375 42.4688 64.5547 42.4453L64.5664 44.9297C64.2773 45.0234 63.9648 45.0977 63.6289 45.1523C63.293 45.207 62.9219 45.2344 62.5156 45.2344C61.7734 45.2344 61.125 45.1133 60.5703 44.8711C60.0234 44.6211 59.6016 44.2227 59.3047 43.6758C59.0078 43.1289 58.8594 42.4102 58.8594 41.5195V29.1914ZM73.1797 42.1406V36.4922C73.1797 36.0859 73.1133 35.7383 72.9805 35.4492C72.8477 35.1523 72.6406 34.9219 72.3594 34.7578C72.0859 34.5938 71.7305 34.5117 71.293 34.5117C70.918 34.5117 70.5938 34.5781 70.3203 34.7109C70.0469 34.8359 69.8359 35.0195 69.6875 35.2617C69.5391 35.4961 69.4648 35.7734 69.4648 36.0938H66.0898C66.0898 35.5547 66.2148 35.043 66.4648 34.5586C66.7148 34.0742 67.0781 33.6484 67.5547 33.2812C68.0312 32.9062 68.5977 32.6133 69.2539 32.4023C69.918 32.1914 70.6602 32.0859 71.4805 32.0859C72.4648 32.0859 73.3398 32.25 74.1055 32.5781C74.8711 32.9062 75.4727 33.3984 75.9102 34.0547C76.3555 34.7109 76.5781 35.5312 76.5781 36.5156V41.9414C76.5781 42.6367 76.6211 43.207 76.707 43.6523C76.793 44.0898 76.918 44.4727 77.082 44.8008V45H73.6719C73.5078 44.6562 73.3828 44.2266 73.2969 43.7109C73.2188 43.1875 73.1797 42.6641 73.1797 42.1406ZM73.625 37.2773L73.6484 39.1875H71.7617C71.3164 39.1875 70.9297 39.2383 70.6016 39.3398C70.2734 39.4414 70.0039 39.5859 69.793 39.7734C69.582 39.9531 69.4258 40.1641 69.3242 40.4062C69.2305 40.6484 69.1836 40.9141 69.1836 41.2031C69.1836 41.4922 69.25 41.7539 69.3828 41.9883C69.5156 42.2148 69.707 42.3945 69.957 42.5273C70.207 42.6523 70.5 42.7148 70.8359 42.7148C71.3438 42.7148 71.7852 42.6133 72.1602 42.4102C72.5352 42.207 72.8242 41.957 73.0273 41.6602C73.2383 41.3633 73.3477 41.082 73.3555 40.8164L74.2461 42.2461C74.1211 42.5664 73.9492 42.8984 73.7305 43.2422C73.5195 43.5859 73.25 43.9102 72.9219 44.2148C72.5938 44.5117 72.1992 44.7578 71.7383 44.9531C71.2773 45.1406 70.7305 45.2344 70.0977 45.2344C69.293 45.2344 68.5625 45.0742 67.9062 44.7539C67.2578 44.4258 66.7422 43.9766 66.3594 43.4062C65.9844 42.8281 65.7969 42.1719 65.7969 41.4375C65.7969 40.7734 65.9219 40.1836 66.1719 39.668C66.4219 39.1523 66.7891 38.7188 67.2734 38.3672C67.7656 38.0078 68.3789 37.7383 69.1133 37.5586C69.8477 37.3711 70.6992 37.2773 71.668 37.2773H73.625ZM82.5547 35.0859V45H79.1797V32.3203H82.3555L82.5547 35.0859ZM86.375 32.2383L86.3164 35.3672C86.1523 35.3438 85.9531 35.3242 85.7188 35.3086C85.4922 35.2852 85.2852 35.2734 85.0977 35.2734C84.6211 35.2734 84.207 35.3359 83.8555 35.4609C83.5117 35.5781 83.2227 35.7539 82.9883 35.9883C82.7617 36.2227 82.5898 36.5078 82.4727 36.8438C82.3633 37.1797 82.3008 37.5625 82.2852 37.9922L81.6055 37.7812C81.6055 36.9609 81.6875 36.207 81.8516 35.5195C82.0156 34.8242 82.2539 34.2188 82.5664 33.7031C82.8867 33.1875 83.2773 32.7891 83.7383 32.5078C84.1992 32.2266 84.7266 32.0859 85.3203 32.0859C85.5078 32.0859 85.6992 32.1016 85.8945 32.1328C86.0898 32.1562 86.25 32.1914 86.375 32.2383ZM94.7656 32.3203V34.7109H87.3828V32.3203H94.7656ZM89.2109 29.1914H92.5859V41.1797C92.5859 41.5469 92.6328 41.8281 92.7266 42.0234C92.8281 42.2188 92.9766 42.3555 93.1719 42.4336C93.3672 42.5039 93.6133 42.5391 93.9102 42.5391C94.1211 42.5391 94.3086 42.5312 94.4727 42.5156C94.6445 42.4922 94.7891 42.4688 94.9062 42.4453L94.918 44.9297C94.6289 45.0234 94.3164 45.0977 93.9805 45.1523C93.6445 45.207 93.2734 45.2344 92.8672 45.2344C92.125 45.2344 91.4766 45.1133 90.9219 44.8711C90.375 44.6211 89.9531 44.2227 89.6562 43.6758C89.3594 43.1289 89.2109 42.4102 89.2109 41.5195V29.1914ZM105.219 27.9375L108.781 35.7188L112.344 27.9375H116.176L110.562 38.7891V45H107V38.7891L101.375 27.9375H105.219ZM116.211 38.7891V38.543C116.211 37.6133 116.344 36.7578 116.609 35.9766C116.875 35.1875 117.262 34.5039 117.77 33.9258C118.277 33.3477 118.902 32.8984 119.645 32.5781C120.387 32.25 121.238 32.0859 122.199 32.0859C123.16 32.0859 124.016 32.25 124.766 32.5781C125.516 32.8984 126.145 33.3477 126.652 33.9258C127.168 34.5039 127.559 35.1875 127.824 35.9766C128.09 36.7578 128.223 37.6133 128.223 38.543V38.7891C128.223 39.7109 128.09 40.5664 127.824 41.3555C127.559 42.1367 127.168 42.8203 126.652 43.4062C126.145 43.9844 125.52 44.4336 124.777 44.7539C124.035 45.0742 123.184 45.2344 122.223 45.2344C121.262 45.2344 120.406 45.0742 119.656 44.7539C118.914 44.4336 118.285 43.9844 117.77 43.4062C117.262 42.8203 116.875 42.1367 116.609 41.3555C116.344 40.5664 116.211 39.7109 116.211 38.7891ZM119.586 38.543V38.7891C119.586 39.3203 119.633 39.8164 119.727 40.2773C119.82 40.7383 119.969 41.1445 120.172 41.4961C120.383 41.8398 120.656 42.1094 120.992 42.3047C121.328 42.5 121.738 42.5977 122.223 42.5977C122.691 42.5977 123.094 42.5 123.43 42.3047C123.766 42.1094 124.035 41.8398 124.238 41.4961C124.441 41.1445 124.59 40.7383 124.684 40.2773C124.785 39.8164 124.836 39.3203 124.836 38.7891V38.543C124.836 38.0273 124.785 37.543 124.684 37.0898C124.59 36.6289 124.438 36.2227 124.227 35.8711C124.023 35.5117 123.754 35.2305 123.418 35.0273C123.082 34.8242 122.676 34.7227 122.199 34.7227C121.723 34.7227 121.316 34.8242 120.98 35.0273C120.652 35.2305 120.383 35.5117 120.172 35.8711C119.969 36.2227 119.82 36.6289 119.727 37.0898C119.633 37.543 119.586 38.0273 119.586 38.543ZM137.797 41.9648V32.3203H141.172V45H137.996L137.797 41.9648ZM138.172 39.3633L139.168 39.3398C139.168 40.1836 139.07 40.9688 138.875 41.6953C138.68 42.4141 138.387 43.0391 137.996 43.5703C137.605 44.0938 137.113 44.5039 136.52 44.8008C135.926 45.0898 135.227 45.2344 134.422 45.2344C133.805 45.2344 133.234 45.1484 132.711 44.9766C132.195 44.7969 131.75 44.5195 131.375 44.1445C131.008 43.7617 130.719 43.2734 130.508 42.6797C130.305 42.0781 130.203 41.3555 130.203 40.5117V32.3203H133.578V40.5352C133.578 40.9102 133.621 41.2266 133.707 41.4844C133.801 41.7422 133.93 41.9531 134.094 42.1172C134.258 42.2812 134.449 42.3984 134.668 42.4688C134.895 42.5391 135.145 42.5742 135.418 42.5742C136.113 42.5742 136.66 42.4336 137.059 42.1523C137.465 41.8711 137.75 41.4883 137.914 41.0039C138.086 40.5117 138.172 39.9648 138.172 39.3633ZM147.125 35.0859V45H143.75V32.3203H146.926L147.125 35.0859ZM150.945 32.2383L150.887 35.3672C150.723 35.3438 150.523 35.3242 150.289 35.3086C150.062 35.2852 149.855 35.2734 149.668 35.2734C149.191 35.2734 148.777 35.3359 148.426 35.4609C148.082 35.5781 147.793 35.7539 147.559 35.9883C147.332 36.2227 147.16 36.5078 147.043 36.8438C146.934 37.1797 146.871 37.5625 146.855 37.9922L146.176 37.7812C146.176 36.9609 146.258 36.207 146.422 35.5195C146.586 34.8242 146.824 34.2188 147.137 33.7031C147.457 33.1875 147.848 32.7891 148.309 32.5078C148.77 32.2266 149.297 32.0859 149.891 32.0859C150.078 32.0859 150.27 32.1016 150.465 32.1328C150.66 32.1562 150.82 32.1914 150.945 32.2383ZM165.664 30.8555L161.023 45H157.285L163.625 27.9375H166.004L165.664 30.8555ZM169.52 45L164.867 30.8555L164.492 27.9375H166.895L173.27 45H169.52ZM169.309 38.6484V41.4023H160.297V38.6484H169.309ZM177.641 34.7578V49.875H174.266V32.3203H177.395L177.641 34.7578ZM185.668 38.5195V38.7656C185.668 39.6875 185.559 40.543 185.34 41.332C185.129 42.1211 184.816 42.8086 184.402 43.3945C183.988 43.9727 183.473 44.4258 182.855 44.7539C182.246 45.0742 181.543 45.2344 180.746 45.2344C179.973 45.2344 179.301 45.0781 178.73 44.7656C178.16 44.4531 177.68 44.0156 177.289 43.4531C176.906 42.8828 176.598 42.2227 176.363 41.4727C176.129 40.7227 175.949 39.918 175.824 39.0586V38.4141C175.949 37.4922 176.129 36.6484 176.363 35.8828C176.598 35.1094 176.906 34.4414 177.289 33.8789C177.68 33.3086 178.156 32.8672 178.719 32.5547C179.289 32.2422 179.957 32.0859 180.723 32.0859C181.527 32.0859 182.234 32.2383 182.844 32.543C183.461 32.8477 183.977 33.2852 184.391 33.8555C184.812 34.4258 185.129 35.1055 185.34 35.8945C185.559 36.6836 185.668 37.5586 185.668 38.5195ZM182.281 38.7656V38.5195C182.281 37.9805 182.234 37.4844 182.141 37.0312C182.055 36.5703 181.914 36.168 181.719 35.8242C181.531 35.4805 181.281 35.2148 180.969 35.0273C180.664 34.832 180.293 34.7344 179.855 34.7344C179.395 34.7344 179 34.8086 178.672 34.957C178.352 35.1055 178.09 35.3203 177.887 35.6016C177.684 35.8828 177.531 36.2188 177.43 36.6094C177.328 37 177.266 37.4414 177.242 37.9336V39.5625C177.281 40.1406 177.391 40.6602 177.57 41.1211C177.75 41.5742 178.027 41.9336 178.402 42.1992C178.777 42.4648 179.27 42.5977 179.879 42.5977C180.324 42.5977 180.699 42.5 181.004 42.3047C181.309 42.1016 181.555 41.8242 181.742 41.4727C181.938 41.1211 182.074 40.7148 182.152 40.2539C182.238 39.793 182.281 39.2969 182.281 38.7656ZM191.141 34.7578V49.875H187.766V32.3203H190.895L191.141 34.7578ZM199.168 38.5195V38.7656C199.168 39.6875 199.059 40.543 198.84 41.332C198.629 42.1211 198.316 42.8086 197.902 43.3945C197.488 43.9727 196.973 44.4258 196.355 44.7539C195.746 45.0742 195.043 45.2344 194.246 45.2344C193.473 45.2344 192.801 45.0781 192.23 44.7656C191.66 44.4531 191.18 44.0156 190.789 43.4531C190.406 42.8828 190.098 42.2227 189.863 41.4727C189.629 40.7227 189.449 39.918 189.324 39.0586V38.4141C189.449 37.4922 189.629 36.6484 189.863 35.8828C190.098 35.1094 190.406 34.4414 190.789 33.8789C191.18 33.3086 191.656 32.8672 192.219 32.5547C192.789 32.2422 193.457 32.0859 194.223 32.0859C195.027 32.0859 195.734 32.2383 196.344 32.543C196.961 32.8477 197.477 33.2852 197.891 33.8555C198.312 34.4258 198.629 35.1055 198.84 35.8945C199.059 36.6836 199.168 37.5586 199.168 38.5195ZM195.781 38.7656V38.5195C195.781 37.9805 195.734 37.4844 195.641 37.0312C195.555 36.5703 195.414 36.168 195.219 35.8242C195.031 35.4805 194.781 35.2148 194.469 35.0273C194.164 34.832 193.793 34.7344 193.355 34.7344C192.895 34.7344 192.5 34.8086 192.172 34.957C191.852 35.1055 191.59 35.3203 191.387 35.6016C191.184 35.8828 191.031 36.2188 190.93 36.6094C190.828 37 190.766 37.4414 190.742 37.9336V39.5625C190.781 40.1406 190.891 40.6602 191.07 41.1211C191.25 41.5742 191.527 41.9336 191.902 42.1992C192.277 42.4648 192.77 42.5977 193.379 42.5977C193.824 42.5977 194.199 42.5 194.504 42.3047C194.809 42.1016 195.055 41.8242 195.242 41.4727C195.438 41.1211 195.574 40.7148 195.652 40.2539C195.738 39.793 195.781 39.2969 195.781 38.7656ZM204.828 27V45H201.441V27H204.828ZM211.18 32.3203V45H207.793V32.3203H211.18ZM207.582 29.0156C207.582 28.5234 207.754 28.1172 208.098 27.7969C208.441 27.4766 208.902 27.3164 209.48 27.3164C210.051 27.3164 210.508 27.4766 210.852 27.7969C211.203 28.1172 211.379 28.5234 211.379 29.0156C211.379 29.5078 211.203 29.9141 210.852 30.2344C210.508 30.5547 210.051 30.7148 209.48 30.7148C208.902 30.7148 208.441 30.5547 208.098 30.2344C207.754 29.9141 207.582 29.5078 207.582 29.0156ZM219.207 42.5977C219.621 42.5977 219.988 42.5195 220.309 42.3633C220.629 42.1992 220.879 41.9727 221.059 41.6836C221.246 41.3867 221.344 41.0391 221.352 40.6406H224.527C224.52 41.5312 224.281 42.3242 223.812 43.0195C223.344 43.707 222.715 44.25 221.926 44.6484C221.137 45.0391 220.254 45.2344 219.277 45.2344C218.293 45.2344 217.434 45.0703 216.699 44.7422C215.973 44.4141 215.367 43.9609 214.883 43.3828C214.398 42.7969 214.035 42.1172 213.793 41.3438C213.551 40.5625 213.43 39.7266 213.43 38.8359V38.4961C213.43 37.5977 213.551 36.7617 213.793 35.9883C214.035 35.207 214.398 34.5273 214.883 33.9492C215.367 33.3633 215.973 32.9062 216.699 32.5781C217.426 32.25 218.277 32.0859 219.254 32.0859C220.293 32.0859 221.203 32.2852 221.984 32.6836C222.773 33.082 223.391 33.6523 223.836 34.3945C224.289 35.1289 224.52 36 224.527 37.0078H221.352C221.344 36.5859 221.254 36.2031 221.082 35.8594C220.918 35.5156 220.676 35.2422 220.355 35.0391C220.043 34.8281 219.656 34.7227 219.195 34.7227C218.703 34.7227 218.301 34.8281 217.988 35.0391C217.676 35.2422 217.434 35.5234 217.262 35.8828C217.09 36.2344 216.969 36.6367 216.898 37.0898C216.836 37.5352 216.805 38.0039 216.805 38.4961V38.8359C216.805 39.3281 216.836 39.8008 216.898 40.2539C216.961 40.707 217.078 41.1094 217.25 41.4609C217.43 41.8125 217.676 42.0898 217.988 42.293C218.301 42.4961 218.707 42.5977 219.207 42.5977ZM233.328 42.1406V36.4922C233.328 36.0859 233.262 35.7383 233.129 35.4492C232.996 35.1523 232.789 34.9219 232.508 34.7578C232.234 34.5938 231.879 34.5117 231.441 34.5117C231.066 34.5117 230.742 34.5781 230.469 34.7109C230.195 34.8359 229.984 35.0195 229.836 35.2617C229.688 35.4961 229.613 35.7734 229.613 36.0938H226.238C226.238 35.5547 226.363 35.043 226.613 34.5586C226.863 34.0742 227.227 33.6484 227.703 33.2812C228.18 32.9062 228.746 32.6133 229.402 32.4023C230.066 32.1914 230.809 32.0859 231.629 32.0859C232.613 32.0859 233.488 32.25 234.254 32.5781C235.02 32.9062 235.621 33.3984 236.059 34.0547C236.504 34.7109 236.727 35.5312 236.727 36.5156V41.9414C236.727 42.6367 236.77 43.207 236.855 43.6523C236.941 44.0898 237.066 44.4727 237.23 44.8008V45H233.82C233.656 44.6562 233.531 44.2266 233.445 43.7109C233.367 43.1875 233.328 42.6641 233.328 42.1406ZM233.773 37.2773L233.797 39.1875H231.91C231.465 39.1875 231.078 39.2383 230.75 39.3398C230.422 39.4414 230.152 39.5859 229.941 39.7734C229.73 39.9531 229.574 40.1641 229.473 40.4062C229.379 40.6484 229.332 40.9141 229.332 41.2031C229.332 41.4922 229.398 41.7539 229.531 41.9883C229.664 42.2148 229.855 42.3945 230.105 42.5273C230.355 42.6523 230.648 42.7148 230.984 42.7148C231.492 42.7148 231.934 42.6133 232.309 42.4102C232.684 42.207 232.973 41.957 233.176 41.6602C233.387 41.3633 233.496 41.082 233.504 40.8164L234.395 42.2461C234.27 42.5664 234.098 42.8984 233.879 43.2422C233.668 43.5859 233.398 43.9102 233.07 44.2148C232.742 44.5117 232.348 44.7578 231.887 44.9531C231.426 45.1406 230.879 45.2344 230.246 45.2344C229.441 45.2344 228.711 45.0742 228.055 44.7539C227.406 44.4258 226.891 43.9766 226.508 43.4062C226.133 42.8281 225.945 42.1719 225.945 41.4375C225.945 40.7734 226.07 40.1836 226.32 39.668C226.57 39.1523 226.938 38.7188 227.422 38.3672C227.914 38.0078 228.527 37.7383 229.262 37.5586C229.996 37.3711 230.848 37.2773 231.816 37.2773H233.773ZM245.539 32.3203V34.7109H238.156V32.3203H245.539ZM239.984 29.1914H243.359V41.1797C243.359 41.5469 243.406 41.8281 243.5 42.0234C243.602 42.2188 243.75 42.3555 243.945 42.4336C244.141 42.5039 244.387 42.5391 244.684 42.5391C244.895 42.5391 245.082 42.5312 245.246 42.5156C245.418 42.4922 245.562 42.4688 245.68 42.4453L245.691 44.9297C245.402 45.0234 245.09 45.0977 244.754 45.1523C244.418 45.207 244.047 45.2344 243.641 45.2344C242.898 45.2344 242.25 45.1133 241.695 44.8711C241.148 44.6211 240.727 44.2227 240.43 43.6758C240.133 43.1289 239.984 42.4102 239.984 41.5195V29.1914ZM251.023 32.3203V45H247.637V32.3203H251.023ZM247.426 29.0156C247.426 28.5234 247.598 28.1172 247.941 27.7969C248.285 27.4766 248.746 27.3164 249.324 27.3164C249.895 27.3164 250.352 27.4766 250.695 27.7969C251.047 28.1172 251.223 28.5234 251.223 29.0156C251.223 29.5078 251.047 29.9141 250.695 30.2344C250.352 30.5547 249.895 30.7148 249.324 30.7148C248.746 30.7148 248.285 30.5547 247.941 30.2344C247.598 29.9141 247.426 29.5078 247.426 29.0156ZM253.273 38.7891V38.543C253.273 37.6133 253.406 36.7578 253.672 35.9766C253.938 35.1875 254.324 34.5039 254.832 33.9258C255.34 33.3477 255.965 32.8984 256.707 32.5781C257.449 32.25 258.301 32.0859 259.262 32.0859C260.223 32.0859 261.078 32.25 261.828 32.5781C262.578 32.8984 263.207 33.3477 263.715 33.9258C264.23 34.5039 264.621 35.1875 264.887 35.9766C265.152 36.7578 265.285 37.6133 265.285 38.543V38.7891C265.285 39.7109 265.152 40.5664 264.887 41.3555C264.621 42.1367 264.23 42.8203 263.715 43.4062C263.207 43.9844 262.582 44.4336 261.84 44.7539C261.098 45.0742 260.246 45.2344 259.285 45.2344C258.324 45.2344 257.469 45.0742 256.719 44.7539C255.977 44.4336 255.348 43.9844 254.832 43.4062C254.324 42.8203 253.938 42.1367 253.672 41.3555C253.406 40.5664 253.273 39.7109 253.273 38.7891ZM256.648 38.543V38.7891C256.648 39.3203 256.695 39.8164 256.789 40.2773C256.883 40.7383 257.031 41.1445 257.234 41.4961C257.445 41.8398 257.719 42.1094 258.055 42.3047C258.391 42.5 258.801 42.5977 259.285 42.5977C259.754 42.5977 260.156 42.5 260.492 42.3047C260.828 42.1094 261.098 41.8398 261.301 41.4961C261.504 41.1445 261.652 40.7383 261.746 40.2773C261.848 39.8164 261.898 39.3203 261.898 38.7891V38.543C261.898 38.0273 261.848 37.543 261.746 37.0898C261.652 36.6289 261.5 36.2227 261.289 35.8711C261.086 35.5117 260.816 35.2305 260.48 35.0273C260.145 34.8242 259.738 34.7227 259.262 34.7227C258.785 34.7227 258.379 34.8242 258.043 35.0273C257.715 35.2305 257.445 35.5117 257.234 35.8711C257.031 36.2227 256.883 36.6289 256.789 37.0898C256.695 37.543 256.648 38.0273 256.648 38.543ZM270.664 35.0273V45H267.289V32.3203H270.453L270.664 35.0273ZM270.172 38.2148H269.258C269.258 37.2773 269.379 36.4336 269.621 35.6836C269.863 34.9258 270.203 34.2812 270.641 33.75C271.078 33.2109 271.598 32.8008 272.199 32.5195C272.809 32.2305 273.488 32.0859 274.238 32.0859C274.832 32.0859 275.375 32.1719 275.867 32.3438C276.359 32.5156 276.781 32.7891 277.133 33.1641C277.492 33.5391 277.766 34.0352 277.953 34.6523C278.148 35.2695 278.246 36.0234 278.246 36.9141V45H274.848V36.9023C274.848 36.3398 274.77 35.9023 274.613 35.5898C274.457 35.2773 274.227 35.0586 273.922 34.9336C273.625 34.8008 273.258 34.7344 272.82 34.7344C272.367 34.7344 271.973 34.8242 271.637 35.0039C271.309 35.1836 271.035 35.4336 270.816 35.7539C270.605 36.0664 270.445 36.4336 270.336 36.8555C270.227 37.2773 270.172 37.7305 270.172 38.2148Z" fill="#021859"/>
<path fill-rule="evenodd" clip-rule="evenodd" d="M313.023 38.1665L303.804 47.5L301.5 45.167L309.567 37L301.5 28.833L303.804 26.5L313.023 35.8335C313.328 36.1429 313.5 36.5625 313.5 37C313.5 37.4375 313.328 37.8571 313.023 38.1665Z" fill="#021859"/>
</svg>
