<svg width="402" height="793" viewBox="0 0 402 793" fill="none" xmlns="http://www.w3.org/2000/svg">
<rect width="402" height="793" rx="52" fill="url(#paint0_linear_652_1265)"/>
<path d="M137.067 137.855L132.426 152H128.688L135.028 134.938H137.407L137.067 137.855ZM140.922 152L136.27 137.855L135.895 134.938H138.297L144.672 152H140.922ZM140.711 145.648V148.402H131.7V145.648H140.711ZM152.002 149.598C152.416 149.598 152.783 149.52 153.103 149.363C153.423 149.199 153.673 148.973 153.853 148.684C154.041 148.387 154.138 148.039 154.146 147.641H157.322C157.314 148.531 157.076 149.324 156.607 150.02C156.138 150.707 155.509 151.25 154.72 151.648C153.931 152.039 153.048 152.234 152.072 152.234C151.087 152.234 150.228 152.07 149.494 151.742C148.767 151.414 148.162 150.961 147.677 150.383C147.193 149.797 146.83 149.117 146.587 148.344C146.345 147.562 146.224 146.727 146.224 145.836V145.496C146.224 144.598 146.345 143.762 146.587 142.988C146.83 142.207 147.193 141.527 147.677 140.949C148.162 140.363 148.767 139.906 149.494 139.578C150.22 139.25 151.072 139.086 152.048 139.086C153.087 139.086 153.998 139.285 154.779 139.684C155.568 140.082 156.185 140.652 156.63 141.395C157.084 142.129 157.314 143 157.322 144.008H154.146C154.138 143.586 154.048 143.203 153.877 142.859C153.712 142.516 153.47 142.242 153.15 142.039C152.837 141.828 152.451 141.723 151.99 141.723C151.498 141.723 151.095 141.828 150.783 142.039C150.47 142.242 150.228 142.523 150.056 142.883C149.884 143.234 149.763 143.637 149.693 144.09C149.63 144.535 149.599 145.004 149.599 145.496V145.836C149.599 146.328 149.63 146.801 149.693 147.254C149.755 147.707 149.873 148.109 150.045 148.461C150.224 148.812 150.47 149.09 150.783 149.293C151.095 149.496 151.502 149.598 152.002 149.598ZM165.237 149.598C165.651 149.598 166.018 149.52 166.339 149.363C166.659 149.199 166.909 148.973 167.089 148.684C167.276 148.387 167.374 148.039 167.382 147.641H170.558C170.55 148.531 170.311 149.324 169.843 150.02C169.374 150.707 168.745 151.25 167.956 151.648C167.167 152.039 166.284 152.234 165.308 152.234C164.323 152.234 163.464 152.07 162.729 151.742C162.003 151.414 161.397 150.961 160.913 150.383C160.429 149.797 160.065 149.117 159.823 148.344C159.581 147.562 159.46 146.727 159.46 145.836V145.496C159.46 144.598 159.581 143.762 159.823 142.988C160.065 142.207 160.429 141.527 160.913 140.949C161.397 140.363 162.003 139.906 162.729 139.578C163.456 139.25 164.308 139.086 165.284 139.086C166.323 139.086 167.233 139.285 168.015 139.684C168.804 140.082 169.421 140.652 169.866 141.395C170.319 142.129 170.55 143 170.558 144.008H167.382C167.374 143.586 167.284 143.203 167.112 142.859C166.948 142.516 166.706 142.242 166.386 142.039C166.073 141.828 165.686 141.723 165.225 141.723C164.733 141.723 164.331 141.828 164.018 142.039C163.706 142.242 163.464 142.523 163.292 142.883C163.12 143.234 162.999 143.637 162.929 144.09C162.866 144.535 162.835 145.004 162.835 145.496V145.836C162.835 146.328 162.866 146.801 162.929 147.254C162.991 147.707 163.108 148.109 163.28 148.461C163.46 148.812 163.706 149.09 164.018 149.293C164.331 149.496 164.737 149.598 165.237 149.598ZM179.07 152.234C178.086 152.234 177.203 152.078 176.422 151.766C175.641 151.445 174.977 151.004 174.43 150.441C173.891 149.879 173.477 149.227 173.188 148.484C172.899 147.734 172.754 146.938 172.754 146.094V145.625C172.754 144.664 172.891 143.785 173.164 142.988C173.438 142.191 173.828 141.5 174.336 140.914C174.852 140.328 175.477 139.879 176.211 139.566C176.945 139.246 177.774 139.086 178.695 139.086C179.594 139.086 180.391 139.234 181.086 139.531C181.781 139.828 182.363 140.25 182.832 140.797C183.309 141.344 183.668 142 183.91 142.766C184.153 143.523 184.274 144.367 184.274 145.297V146.703H174.195V144.453H180.957V144.195C180.957 143.727 180.871 143.309 180.699 142.941C180.535 142.566 180.285 142.27 179.949 142.051C179.613 141.832 179.184 141.723 178.66 141.723C178.215 141.723 177.832 141.82 177.512 142.016C177.192 142.211 176.93 142.484 176.727 142.836C176.531 143.188 176.383 143.602 176.281 144.078C176.188 144.547 176.141 145.062 176.141 145.625V146.094C176.141 146.602 176.211 147.07 176.352 147.5C176.5 147.93 176.707 148.301 176.973 148.613C177.246 148.926 177.574 149.168 177.957 149.34C178.348 149.512 178.789 149.598 179.281 149.598C179.891 149.598 180.457 149.48 180.981 149.246C181.512 149.004 181.969 148.641 182.352 148.156L183.992 149.938C183.727 150.32 183.363 150.688 182.903 151.039C182.449 151.391 181.903 151.68 181.262 151.906C180.621 152.125 179.891 152.234 179.07 152.234ZM190.478 134V152H187.091V134H190.478ZM199.823 152.234C198.839 152.234 197.956 152.078 197.175 151.766C196.393 151.445 195.729 151.004 195.182 150.441C194.643 149.879 194.229 149.227 193.94 148.484C193.651 147.734 193.507 146.938 193.507 146.094V145.625C193.507 144.664 193.643 143.785 193.917 142.988C194.19 142.191 194.581 141.5 195.089 140.914C195.604 140.328 196.229 139.879 196.964 139.566C197.698 139.246 198.526 139.086 199.448 139.086C200.346 139.086 201.143 139.234 201.839 139.531C202.534 139.828 203.116 140.25 203.585 140.797C204.061 141.344 204.421 142 204.663 142.766C204.905 143.523 205.026 144.367 205.026 145.297V146.703H194.948V144.453H201.71V144.195C201.71 143.727 201.624 143.309 201.452 142.941C201.288 142.566 201.038 142.27 200.702 142.051C200.366 141.832 199.936 141.723 199.413 141.723C198.967 141.723 198.585 141.82 198.264 142.016C197.944 142.211 197.682 142.484 197.479 142.836C197.284 143.188 197.135 143.602 197.034 144.078C196.94 144.547 196.893 145.062 196.893 145.625V146.094C196.893 146.602 196.964 147.07 197.104 147.5C197.253 147.93 197.46 148.301 197.725 148.613C197.999 148.926 198.327 149.168 198.71 149.34C199.1 149.512 199.542 149.598 200.034 149.598C200.643 149.598 201.21 149.48 201.733 149.246C202.264 149.004 202.721 148.641 203.104 148.156L204.745 149.938C204.479 150.32 204.116 150.688 203.655 151.039C203.202 151.391 202.655 151.68 202.014 151.906C201.374 152.125 200.643 152.234 199.823 152.234ZM211.043 142.086V152H207.668V139.32H210.844L211.043 142.086ZM214.863 139.238L214.805 142.367C214.641 142.344 214.441 142.324 214.207 142.309C213.98 142.285 213.773 142.273 213.586 142.273C213.109 142.273 212.695 142.336 212.344 142.461C212 142.578 211.711 142.754 211.477 142.988C211.25 143.223 211.078 143.508 210.961 143.844C210.852 144.18 210.789 144.562 210.773 144.992L210.094 144.781C210.094 143.961 210.176 143.207 210.34 142.52C210.504 141.824 210.742 141.219 211.055 140.703C211.375 140.188 211.766 139.789 212.227 139.508C212.688 139.227 213.215 139.086 213.809 139.086C213.996 139.086 214.188 139.102 214.383 139.133C214.578 139.156 214.738 139.191 214.863 139.238ZM223.622 149.141V143.492C223.622 143.086 223.556 142.738 223.423 142.449C223.29 142.152 223.083 141.922 222.802 141.758C222.529 141.594 222.173 141.512 221.736 141.512C221.361 141.512 221.036 141.578 220.763 141.711C220.49 141.836 220.279 142.02 220.13 142.262C219.982 142.496 219.908 142.773 219.908 143.094H216.533C216.533 142.555 216.658 142.043 216.908 141.559C217.158 141.074 217.521 140.648 217.997 140.281C218.474 139.906 219.04 139.613 219.697 139.402C220.361 139.191 221.103 139.086 221.923 139.086C222.908 139.086 223.783 139.25 224.548 139.578C225.314 139.906 225.915 140.398 226.353 141.055C226.798 141.711 227.021 142.531 227.021 143.516V148.941C227.021 149.637 227.064 150.207 227.15 150.652C227.236 151.09 227.361 151.473 227.525 151.801V152H224.115C223.95 151.656 223.825 151.227 223.74 150.711C223.661 150.188 223.622 149.664 223.622 149.141ZM224.068 144.277L224.091 146.188H222.204C221.759 146.188 221.372 146.238 221.044 146.34C220.716 146.441 220.447 146.586 220.236 146.773C220.025 146.953 219.868 147.164 219.767 147.406C219.673 147.648 219.626 147.914 219.626 148.203C219.626 148.492 219.693 148.754 219.825 148.988C219.958 149.215 220.15 149.395 220.4 149.527C220.65 149.652 220.943 149.715 221.279 149.715C221.786 149.715 222.228 149.613 222.603 149.41C222.978 149.207 223.267 148.957 223.47 148.66C223.681 148.363 223.79 148.082 223.798 147.816L224.689 149.246C224.564 149.566 224.392 149.898 224.173 150.242C223.962 150.586 223.693 150.91 223.365 151.215C223.036 151.512 222.642 151.758 222.181 151.953C221.72 152.141 221.173 152.234 220.54 152.234C219.736 152.234 219.005 152.074 218.349 151.754C217.7 151.426 217.185 150.977 216.802 150.406C216.427 149.828 216.24 149.172 216.24 148.438C216.24 147.773 216.365 147.184 216.615 146.668C216.865 146.152 217.232 145.719 217.716 145.367C218.208 145.008 218.822 144.738 219.556 144.559C220.29 144.371 221.142 144.277 222.111 144.277H224.068ZM236.553 139.32V141.711H229.17V139.32H236.553ZM230.999 136.191H234.374V148.18C234.374 148.547 234.42 148.828 234.514 149.023C234.616 149.219 234.764 149.355 234.96 149.434C235.155 149.504 235.401 149.539 235.698 149.539C235.909 149.539 236.096 149.531 236.26 149.516C236.432 149.492 236.577 149.469 236.694 149.445L236.706 151.93C236.417 152.023 236.104 152.098 235.768 152.152C235.432 152.207 235.061 152.234 234.655 152.234C233.913 152.234 233.264 152.113 232.71 151.871C232.163 151.621 231.741 151.223 231.444 150.676C231.147 150.129 230.999 149.41 230.999 148.52V136.191ZM242.758 139.32V152H239.371V139.32H242.758ZM239.16 136.016C239.16 135.523 239.332 135.117 239.676 134.797C240.019 134.477 240.48 134.316 241.058 134.316C241.629 134.316 242.086 134.477 242.43 134.797C242.781 135.117 242.957 135.523 242.957 136.016C242.957 136.508 242.781 136.914 242.43 137.234C242.086 137.555 241.629 137.715 241.058 137.715C240.48 137.715 240.019 137.555 239.676 137.234C239.332 136.914 239.16 136.508 239.16 136.016ZM245.728 145.789V145.543C245.728 144.613 245.86 143.758 246.126 142.977C246.392 142.188 246.778 141.504 247.286 140.926C247.794 140.348 248.419 139.898 249.161 139.578C249.903 139.25 250.755 139.086 251.716 139.086C252.677 139.086 253.532 139.25 254.282 139.578C255.032 139.898 255.661 140.348 256.169 140.926C256.685 141.504 257.075 142.188 257.341 142.977C257.607 143.758 257.739 144.613 257.739 145.543V145.789C257.739 146.711 257.607 147.566 257.341 148.355C257.075 149.137 256.685 149.82 256.169 150.406C255.661 150.984 255.036 151.434 254.294 151.754C253.552 152.074 252.7 152.234 251.739 152.234C250.778 152.234 249.923 152.074 249.173 151.754C248.431 151.434 247.802 150.984 247.286 150.406C246.778 149.82 246.392 149.137 246.126 148.355C245.86 147.566 245.728 146.711 245.728 145.789ZM249.103 145.543V145.789C249.103 146.32 249.15 146.816 249.243 147.277C249.337 147.738 249.485 148.145 249.689 148.496C249.9 148.84 250.173 149.109 250.509 149.305C250.845 149.5 251.255 149.598 251.739 149.598C252.208 149.598 252.61 149.5 252.946 149.305C253.282 149.109 253.552 148.84 253.755 148.496C253.958 148.145 254.107 147.738 254.2 147.277C254.302 146.816 254.353 146.32 254.353 145.789V145.543C254.353 145.027 254.302 144.543 254.2 144.09C254.107 143.629 253.954 143.223 253.743 142.871C253.54 142.512 253.271 142.23 252.935 142.027C252.599 141.824 252.193 141.723 251.716 141.723C251.239 141.723 250.833 141.824 250.497 142.027C250.169 142.23 249.9 142.512 249.689 142.871C249.485 143.223 249.337 143.629 249.243 144.09C249.15 144.543 249.103 145.027 249.103 145.543ZM263.838 142.027V152H260.463V139.32H263.627L263.838 142.027ZM263.346 145.215H262.432C262.432 144.277 262.553 143.434 262.795 142.684C263.038 141.926 263.377 141.281 263.815 140.75C264.252 140.211 264.772 139.801 265.373 139.52C265.983 139.23 266.663 139.086 267.413 139.086C268.006 139.086 268.549 139.172 269.041 139.344C269.534 139.516 269.955 139.789 270.307 140.164C270.666 140.539 270.94 141.035 271.127 141.652C271.323 142.27 271.42 143.023 271.42 143.914V152H268.022V143.902C268.022 143.34 267.944 142.902 267.788 142.59C267.631 142.277 267.401 142.059 267.096 141.934C266.799 141.801 266.432 141.734 265.995 141.734C265.541 141.734 265.147 141.824 264.811 142.004C264.483 142.184 264.209 142.434 263.991 142.754C263.78 143.066 263.62 143.434 263.51 143.855C263.401 144.277 263.346 144.73 263.346 145.215ZM160.414 169.918H156.067V167.176H160.414C161.086 167.176 161.633 167.066 162.055 166.848C162.477 166.621 162.785 166.309 162.981 165.91C163.176 165.512 163.274 165.062 163.274 164.562C163.274 164.055 163.176 163.582 162.981 163.145C162.785 162.707 162.477 162.355 162.055 162.09C161.633 161.824 161.086 161.691 160.414 161.691H157.285V176H153.77V158.938H160.414C161.75 158.938 162.895 159.18 163.848 159.664C164.809 160.141 165.543 160.801 166.051 161.645C166.559 162.488 166.813 163.453 166.813 164.539C166.813 165.641 166.559 166.594 166.051 167.398C165.543 168.203 164.809 168.824 163.848 169.262C162.895 169.699 161.75 169.918 160.414 169.918ZM173.122 166.086V176H169.747V163.32H172.923L173.122 166.086ZM176.943 163.238L176.884 166.367C176.72 166.344 176.521 166.324 176.287 166.309C176.06 166.285 175.853 166.273 175.665 166.273C175.189 166.273 174.775 166.336 174.423 166.461C174.08 166.578 173.79 166.754 173.556 166.988C173.33 167.223 173.158 167.508 173.04 167.844C172.931 168.18 172.869 168.562 172.853 168.992L172.173 168.781C172.173 167.961 172.255 167.207 172.419 166.52C172.583 165.824 172.822 165.219 173.134 164.703C173.455 164.188 173.845 163.789 174.306 163.508C174.767 163.227 175.294 163.086 175.888 163.086C176.076 163.086 176.267 163.102 176.462 163.133C176.658 163.156 176.818 163.191 176.943 163.238ZM178.366 169.789V169.543C178.366 168.613 178.499 167.758 178.764 166.977C179.03 166.188 179.417 165.504 179.925 164.926C180.432 164.348 181.057 163.898 181.8 163.578C182.542 163.25 183.393 163.086 184.354 163.086C185.315 163.086 186.171 163.25 186.921 163.578C187.671 163.898 188.3 164.348 188.807 164.926C189.323 165.504 189.714 166.188 189.979 166.977C190.245 167.758 190.378 168.613 190.378 169.543V169.789C190.378 170.711 190.245 171.566 189.979 172.355C189.714 173.137 189.323 173.82 188.807 174.406C188.3 174.984 187.675 175.434 186.932 175.754C186.19 176.074 185.339 176.234 184.378 176.234C183.417 176.234 182.561 176.074 181.811 175.754C181.069 175.434 180.44 174.984 179.925 174.406C179.417 173.82 179.03 173.137 178.764 172.355C178.499 171.566 178.366 170.711 178.366 169.789ZM181.741 169.543V169.789C181.741 170.32 181.788 170.816 181.882 171.277C181.975 171.738 182.124 172.145 182.327 172.496C182.538 172.84 182.811 173.109 183.147 173.305C183.483 173.5 183.893 173.598 184.378 173.598C184.846 173.598 185.249 173.5 185.585 173.305C185.921 173.109 186.19 172.84 186.393 172.496C186.596 172.145 186.745 171.738 186.839 171.277C186.94 170.816 186.991 170.32 186.991 169.789V169.543C186.991 169.027 186.94 168.543 186.839 168.09C186.745 167.629 186.592 167.223 186.382 166.871C186.178 166.512 185.909 166.23 185.573 166.027C185.237 165.824 184.831 165.723 184.354 165.723C183.878 165.723 183.471 165.824 183.135 166.027C182.807 166.23 182.538 166.512 182.327 166.871C182.124 167.223 181.975 167.629 181.882 168.09C181.788 168.543 181.741 169.027 181.741 169.543ZM201.199 163.32H204.258V175.578C204.258 176.734 204 177.715 203.484 178.52C202.977 179.332 202.266 179.945 201.352 180.359C200.438 180.781 199.375 180.992 198.164 180.992C197.633 180.992 197.07 180.922 196.477 180.781C195.891 180.641 195.328 180.422 194.789 180.125C194.258 179.828 193.812 179.453 193.453 179L194.941 177.008C195.332 177.461 195.785 177.812 196.301 178.062C196.816 178.32 197.387 178.449 198.012 178.449C198.621 178.449 199.137 178.336 199.559 178.109C199.98 177.891 200.305 177.566 200.531 177.137C200.758 176.715 200.871 176.203 200.871 175.602V166.25L201.199 163.32ZM192.668 169.812V169.566C192.668 168.598 192.785 167.719 193.02 166.93C193.262 166.133 193.602 165.449 194.039 164.879C194.484 164.309 195.023 163.867 195.656 163.555C196.289 163.242 197.004 163.086 197.801 163.086C198.645 163.086 199.352 163.242 199.922 163.555C200.492 163.867 200.961 164.312 201.328 164.891C201.695 165.461 201.98 166.137 202.184 166.918C202.395 167.691 202.559 168.539 202.676 169.461V170C202.559 170.883 202.383 171.703 202.148 172.461C201.914 173.219 201.605 173.883 201.223 174.453C200.84 175.016 200.363 175.453 199.793 175.766C199.23 176.078 198.559 176.234 197.777 176.234C196.996 176.234 196.289 176.074 195.656 175.754C195.031 175.434 194.496 174.984 194.051 174.406C193.605 173.828 193.262 173.148 193.02 172.367C192.785 171.586 192.668 170.734 192.668 169.812ZM196.043 169.566V169.812C196.043 170.336 196.094 170.824 196.195 171.277C196.297 171.73 196.453 172.133 196.664 172.484C196.883 172.828 197.152 173.098 197.473 173.293C197.801 173.48 198.188 173.574 198.633 173.574C199.25 173.574 199.754 173.445 200.145 173.188C200.535 172.922 200.828 172.559 201.023 172.098C201.219 171.637 201.332 171.105 201.363 170.504V168.969C201.348 168.477 201.281 168.035 201.164 167.645C201.047 167.246 200.883 166.906 200.672 166.625C200.461 166.344 200.188 166.125 199.852 165.969C199.516 165.812 199.117 165.734 198.656 165.734C198.211 165.734 197.824 165.836 197.496 166.039C197.176 166.234 196.906 166.504 196.688 166.848C196.477 167.191 196.316 167.598 196.207 168.066C196.098 168.527 196.043 169.027 196.043 169.566ZM210.978 166.086V176H207.603V163.32H210.779L210.978 166.086ZM214.798 163.238L214.74 166.367C214.575 166.344 214.376 166.324 214.142 166.309C213.915 166.285 213.708 166.273 213.521 166.273C213.044 166.273 212.63 166.336 212.279 166.461C211.935 166.578 211.646 166.754 211.411 166.988C211.185 167.223 211.013 167.508 210.896 167.844C210.786 168.18 210.724 168.562 210.708 168.992L210.029 168.781C210.029 167.961 210.111 167.207 210.275 166.52C210.439 165.824 210.677 165.219 210.99 164.703C211.31 164.188 211.7 163.789 212.161 163.508C212.622 163.227 213.15 163.086 213.743 163.086C213.931 163.086 214.122 163.102 214.318 163.133C214.513 163.156 214.673 163.191 214.798 163.238ZM223.557 173.141V167.492C223.557 167.086 223.491 166.738 223.358 166.449C223.225 166.152 223.018 165.922 222.737 165.758C222.463 165.594 222.108 165.512 221.67 165.512C221.295 165.512 220.971 165.578 220.698 165.711C220.424 165.836 220.213 166.02 220.065 166.262C219.917 166.496 219.842 166.773 219.842 167.094H216.467C216.467 166.555 216.592 166.043 216.842 165.559C217.092 165.074 217.456 164.648 217.932 164.281C218.409 163.906 218.975 163.613 219.631 163.402C220.295 163.191 221.038 163.086 221.858 163.086C222.842 163.086 223.717 163.25 224.483 163.578C225.249 163.906 225.85 164.398 226.288 165.055C226.733 165.711 226.956 166.531 226.956 167.516V172.941C226.956 173.637 226.999 174.207 227.085 174.652C227.17 175.09 227.295 175.473 227.46 175.801V176H224.049C223.885 175.656 223.76 175.227 223.674 174.711C223.596 174.188 223.557 173.664 223.557 173.141ZM224.003 168.277L224.026 170.188H222.139C221.694 170.188 221.307 170.238 220.979 170.34C220.651 170.441 220.381 170.586 220.17 170.773C219.96 170.953 219.803 171.164 219.702 171.406C219.608 171.648 219.561 171.914 219.561 172.203C219.561 172.492 219.628 172.754 219.76 172.988C219.893 173.215 220.085 173.395 220.335 173.527C220.585 173.652 220.878 173.715 221.213 173.715C221.721 173.715 222.163 173.613 222.538 173.41C222.913 173.207 223.202 172.957 223.405 172.66C223.616 172.363 223.725 172.082 223.733 171.816L224.624 173.246C224.499 173.566 224.327 173.898 224.108 174.242C223.897 174.586 223.628 174.91 223.299 175.215C222.971 175.512 222.577 175.758 222.116 175.953C221.655 176.141 221.108 176.234 220.475 176.234C219.67 176.234 218.94 176.074 218.284 175.754C217.635 175.426 217.12 174.977 216.737 174.406C216.362 173.828 216.174 173.172 216.174 172.438C216.174 171.773 216.299 171.184 216.549 170.668C216.799 170.152 217.167 169.719 217.651 169.367C218.143 169.008 218.756 168.738 219.491 168.559C220.225 168.371 221.077 168.277 222.045 168.277H224.003ZM233.652 165.945V176H230.265V163.32H233.441L233.652 165.945ZM233.183 169.215H232.246C232.246 168.332 232.351 167.52 232.562 166.777C232.781 166.027 233.098 165.379 233.512 164.832C233.933 164.277 234.453 163.848 235.07 163.543C235.687 163.238 236.402 163.086 237.215 163.086C237.777 163.086 238.293 163.172 238.762 163.344C239.23 163.508 239.633 163.77 239.969 164.129C240.312 164.48 240.578 164.941 240.765 165.512C240.953 166.074 241.047 166.75 241.047 167.539V176H237.672V167.914C237.672 167.336 237.594 166.891 237.437 166.578C237.281 166.266 237.058 166.047 236.769 165.922C236.488 165.797 236.148 165.734 235.75 165.734C235.312 165.734 234.93 165.824 234.601 166.004C234.281 166.184 234.015 166.434 233.805 166.754C233.594 167.066 233.437 167.434 233.336 167.855C233.234 168.277 233.183 168.73 233.183 169.215ZM240.73 168.828L239.523 168.98C239.523 168.152 239.625 167.383 239.828 166.672C240.039 165.961 240.348 165.336 240.754 164.797C241.168 164.258 241.68 163.84 242.289 163.543C242.898 163.238 243.601 163.086 244.398 163.086C245.008 163.086 245.562 163.176 246.062 163.355C246.562 163.527 246.988 163.805 247.34 164.188C247.699 164.562 247.973 165.055 248.16 165.664C248.355 166.273 248.453 167.02 248.453 167.902V176H245.066V167.902C245.066 167.316 244.988 166.871 244.832 166.566C244.683 166.254 244.465 166.039 244.176 165.922C243.894 165.797 243.558 165.734 243.168 165.734C242.762 165.734 242.406 165.816 242.101 165.98C241.797 166.137 241.543 166.355 241.34 166.637C241.137 166.918 240.984 167.246 240.883 167.621C240.781 167.988 240.73 168.391 240.73 168.828Z" fill="white"/>
<path d="M201.001 110.75L196.251 106M201.001 110.75C203.212 109.909 205.334 108.848 207.334 107.583M201.001 110.75V118.667C201.001 118.667 205.798 117.796 207.334 115.5C209.044 112.935 207.334 107.583 207.334 107.583M196.251 106C197.093 103.814 198.154 101.719 199.417 99.7458C201.262 96.796 203.831 94.3673 206.88 92.6906C209.928 91.0139 213.355 90.1451 216.834 90.1667C216.834 94.4733 215.599 102.042 207.334 107.583M196.251 106H188.334C188.334 106 189.205 101.202 191.501 99.6666C194.066 97.9567 199.417 99.6666 199.417 99.6666M189.126 113.125C186.751 115.12 185.959 121.042 185.959 121.042C185.959 121.042 191.881 120.25 193.876 117.875C195 116.545 194.984 114.502 193.733 113.267C193.118 112.68 192.307 112.341 191.457 112.314C190.606 112.288 189.776 112.577 189.126 113.125Z" stroke="#3CE5A7" stroke-width="4" stroke-linecap="round" stroke-linejoin="round"/>
<path opacity="0.57" d="M375 268H27" stroke="#22DEFF" stroke-width="3" stroke-linecap="round"/>
<path d="M123.769 422.695L127.789 409.195H131.703L125.761 426.257H123.183L123.769 422.695ZM120.066 409.195L124.074 422.695L124.683 426.257H122.082L116.175 409.195H120.066ZM139.126 426.492C138.142 426.492 137.259 426.336 136.478 426.023C135.696 425.703 135.032 425.261 134.485 424.699C133.946 424.136 133.532 423.484 133.243 422.742C132.954 421.992 132.81 421.195 132.81 420.351V419.882C132.81 418.922 132.946 418.043 133.22 417.246C133.493 416.449 133.884 415.757 134.392 415.172C134.907 414.586 135.532 414.136 136.267 413.824C137.001 413.504 137.829 413.343 138.751 413.343C139.649 413.343 140.446 413.492 141.142 413.789C141.837 414.086 142.419 414.507 142.888 415.054C143.364 415.601 143.724 416.257 143.966 417.023C144.208 417.781 144.329 418.625 144.329 419.554V420.961H134.251V418.711H141.013V418.453C141.013 417.984 140.927 417.566 140.755 417.199C140.591 416.824 140.341 416.527 140.005 416.308C139.669 416.089 139.239 415.98 138.716 415.98C138.27 415.98 137.888 416.078 137.567 416.273C137.247 416.468 136.985 416.742 136.782 417.093C136.587 417.445 136.438 417.859 136.337 418.336C136.243 418.804 136.196 419.32 136.196 419.882V420.351C136.196 420.859 136.267 421.328 136.407 421.757C136.556 422.187 136.763 422.558 137.028 422.871C137.302 423.183 137.63 423.425 138.013 423.597C138.403 423.769 138.845 423.855 139.337 423.855C139.946 423.855 140.513 423.738 141.036 423.504C141.567 423.261 142.024 422.898 142.407 422.414L144.048 424.195C143.782 424.578 143.419 424.945 142.958 425.297C142.505 425.648 141.958 425.937 141.317 426.164C140.677 426.382 139.946 426.492 139.126 426.492ZM150.276 416.285V426.257H146.901V413.578H150.065L150.276 416.285ZM149.783 419.472H148.869C148.869 418.535 148.99 417.691 149.233 416.941C149.475 416.183 149.815 415.539 150.252 415.007C150.69 414.468 151.209 414.058 151.811 413.777C152.42 413.488 153.1 413.343 153.85 413.343C154.444 413.343 154.987 413.429 155.479 413.601C155.971 413.773 156.393 414.047 156.744 414.422C157.104 414.797 157.377 415.293 157.565 415.91C157.76 416.527 157.858 417.281 157.858 418.172V426.257H154.459V418.16C154.459 417.597 154.381 417.16 154.225 416.847C154.069 416.535 153.838 416.316 153.533 416.191C153.237 416.058 152.869 415.992 152.432 415.992C151.979 415.992 151.584 416.082 151.248 416.261C150.92 416.441 150.647 416.691 150.428 417.011C150.217 417.324 150.057 417.691 149.948 418.113C149.838 418.535 149.783 418.988 149.783 419.472ZM167.355 413.578V415.968H159.972V413.578H167.355ZM161.8 410.449H165.175V422.437C165.175 422.804 165.222 423.086 165.316 423.281C165.417 423.476 165.566 423.613 165.761 423.691C165.957 423.761 166.203 423.797 166.5 423.797C166.71 423.797 166.898 423.789 167.062 423.773C167.234 423.75 167.378 423.726 167.496 423.703L167.507 426.187C167.218 426.281 166.906 426.355 166.57 426.41C166.234 426.464 165.863 426.492 165.457 426.492C164.714 426.492 164.066 426.371 163.511 426.129C162.964 425.879 162.542 425.48 162.246 424.933C161.949 424.386 161.8 423.668 161.8 422.777V410.449ZM177.497 423.222V413.578H180.872V426.257H177.696L177.497 423.222ZM177.872 420.621L178.868 420.597C178.868 421.441 178.77 422.226 178.575 422.953C178.38 423.672 178.087 424.297 177.696 424.828C177.305 425.351 176.813 425.761 176.22 426.058C175.626 426.347 174.927 426.492 174.122 426.492C173.505 426.492 172.934 426.406 172.411 426.234C171.895 426.054 171.45 425.777 171.075 425.402C170.708 425.019 170.419 424.531 170.208 423.937C170.005 423.336 169.903 422.613 169.903 421.769V413.578H173.278V421.793C173.278 422.168 173.321 422.484 173.407 422.742C173.501 423 173.63 423.211 173.794 423.375C173.958 423.539 174.149 423.656 174.368 423.726C174.595 423.797 174.845 423.832 175.118 423.832C175.813 423.832 176.36 423.691 176.759 423.41C177.165 423.129 177.45 422.746 177.614 422.261C177.786 421.769 177.872 421.222 177.872 420.621ZM187.545 416.343V426.257H184.17V413.578H187.346L187.545 416.343ZM191.365 413.496L191.307 416.625C191.143 416.601 190.943 416.582 190.709 416.566C190.482 416.543 190.275 416.531 190.088 416.531C189.611 416.531 189.197 416.593 188.846 416.718C188.502 416.836 188.213 417.011 187.979 417.246C187.752 417.48 187.58 417.765 187.463 418.101C187.354 418.437 187.291 418.82 187.275 419.25L186.596 419.039C186.596 418.218 186.678 417.464 186.842 416.777C187.006 416.082 187.244 415.476 187.557 414.961C187.877 414.445 188.268 414.047 188.729 413.765C189.19 413.484 189.717 413.343 190.311 413.343C190.498 413.343 190.69 413.359 190.885 413.39C191.08 413.414 191.24 413.449 191.365 413.496ZM199.281 426.492C198.296 426.492 197.413 426.336 196.632 426.023C195.851 425.703 195.187 425.261 194.64 424.699C194.101 424.136 193.687 423.484 193.398 422.742C193.109 421.992 192.964 421.195 192.964 420.351V419.882C192.964 418.922 193.101 418.043 193.374 417.246C193.648 416.449 194.038 415.757 194.546 415.172C195.062 414.586 195.687 414.136 196.421 413.824C197.156 413.504 197.984 413.343 198.906 413.343C199.804 413.343 200.601 413.492 201.296 413.789C201.992 414.086 202.574 414.507 203.042 415.054C203.519 415.601 203.878 416.257 204.12 417.023C204.363 417.781 204.484 418.625 204.484 419.554V420.961H194.406V418.711H201.167V418.453C201.167 417.984 201.081 417.566 200.91 417.199C200.745 416.824 200.495 416.527 200.16 416.308C199.824 416.089 199.394 415.98 198.87 415.98C198.425 415.98 198.042 416.078 197.722 416.273C197.402 416.468 197.14 416.742 196.937 417.093C196.742 417.445 196.593 417.859 196.492 418.336C196.398 418.804 196.351 419.32 196.351 419.882V420.351C196.351 420.859 196.421 421.328 196.562 421.757C196.71 422.187 196.917 422.558 197.183 422.871C197.456 423.183 197.785 423.425 198.167 423.597C198.558 423.769 198.999 423.855 199.492 423.855C200.101 423.855 200.667 423.738 201.191 423.504C201.722 423.261 202.179 422.898 202.562 422.414L204.202 424.195C203.937 424.578 203.574 424.945 203.113 425.297C202.66 425.648 202.113 425.937 201.472 426.164C200.831 426.382 200.101 426.492 199.281 426.492ZM222.916 421.793C222.916 421.488 222.869 421.214 222.775 420.972C222.689 420.722 222.525 420.496 222.283 420.293C222.041 420.082 221.701 419.875 221.264 419.672C220.826 419.468 220.26 419.257 219.564 419.039C218.791 418.789 218.057 418.507 217.361 418.195C216.674 417.882 216.064 417.519 215.533 417.105C215.01 416.683 214.596 416.195 214.291 415.64C213.994 415.086 213.846 414.441 213.846 413.707C213.846 412.996 214.002 412.351 214.314 411.773C214.627 411.187 215.064 410.687 215.627 410.273C216.189 409.851 216.853 409.527 217.619 409.3C218.393 409.074 219.24 408.961 220.162 408.961C221.42 408.961 222.518 409.187 223.455 409.64C224.393 410.093 225.119 410.714 225.635 411.504C226.158 412.293 226.42 413.195 226.42 414.211H222.928C222.928 413.711 222.822 413.273 222.611 412.898C222.408 412.515 222.096 412.214 221.674 411.996C221.26 411.777 220.736 411.668 220.103 411.668C219.494 411.668 218.986 411.761 218.58 411.949C218.174 412.129 217.869 412.375 217.666 412.687C217.463 412.992 217.361 413.336 217.361 413.718C217.361 414.007 217.432 414.269 217.572 414.504C217.721 414.738 217.939 414.957 218.228 415.16C218.518 415.363 218.873 415.554 219.295 415.734C219.717 415.914 220.205 416.089 220.76 416.261C221.689 416.543 222.506 416.859 223.209 417.211C223.92 417.562 224.514 417.957 224.99 418.394C225.467 418.832 225.826 419.328 226.068 419.882C226.31 420.437 226.432 421.066 226.432 421.769C226.432 422.511 226.287 423.175 225.998 423.761C225.709 424.347 225.291 424.843 224.744 425.25C224.197 425.656 223.545 425.964 222.787 426.175C222.029 426.386 221.182 426.492 220.244 426.492C219.4 426.492 218.568 426.382 217.748 426.164C216.928 425.937 216.182 425.597 215.51 425.144C214.846 424.691 214.314 424.113 213.916 423.41C213.518 422.707 213.318 421.875 213.318 420.914H216.846C216.846 421.445 216.928 421.894 217.092 422.261C217.256 422.629 217.486 422.925 217.783 423.152C218.088 423.379 218.447 423.543 218.861 423.644C219.283 423.746 219.744 423.797 220.244 423.797C220.853 423.797 221.353 423.711 221.744 423.539C222.143 423.367 222.435 423.129 222.623 422.824C222.818 422.519 222.916 422.175 222.916 421.793ZM235.542 413.578V415.968H228.159V413.578H235.542ZM229.988 410.449H233.363V422.437C233.363 422.804 233.409 423.086 233.503 423.281C233.605 423.476 233.753 423.613 233.948 423.691C234.144 423.761 234.39 423.797 234.687 423.797C234.898 423.797 235.085 423.789 235.249 423.773C235.421 423.75 235.566 423.726 235.683 423.703L235.695 426.187C235.405 426.281 235.093 426.355 234.757 426.41C234.421 426.464 234.05 426.492 233.644 426.492C232.902 426.492 232.253 426.371 231.698 426.129C231.152 425.879 230.73 425.48 230.433 424.933C230.136 424.386 229.988 423.668 229.988 422.777V410.449ZM245.684 423.222V413.578H249.059V426.257H245.883L245.684 423.222ZM246.059 420.621L247.055 420.597C247.055 421.441 246.957 422.226 246.762 422.953C246.567 423.672 246.274 424.297 245.883 424.828C245.493 425.351 245 425.761 244.407 426.058C243.813 426.347 243.114 426.492 242.309 426.492C241.692 426.492 241.122 426.406 240.598 426.234C240.082 426.054 239.637 425.777 239.262 425.402C238.895 425.019 238.606 424.531 238.395 423.937C238.192 423.336 238.09 422.613 238.09 421.769V413.578H241.465V421.793C241.465 422.168 241.508 422.484 241.594 422.742C241.688 423 241.817 423.211 241.981 423.375C242.145 423.539 242.336 423.656 242.555 423.726C242.782 423.797 243.032 423.832 243.305 423.832C244 423.832 244.547 423.691 244.946 423.41C245.352 423.129 245.637 422.746 245.801 422.261C245.973 421.769 246.059 421.222 246.059 420.621ZM259.845 423.492V408.257H263.244V426.257H260.185L259.845 423.492ZM251.83 420.07V419.824C251.83 418.855 251.939 417.976 252.158 417.187C252.377 416.39 252.697 415.707 253.119 415.136C253.541 414.566 254.06 414.125 254.677 413.812C255.295 413.5 255.998 413.343 256.787 413.343C257.529 413.343 258.177 413.5 258.732 413.812C259.295 414.125 259.771 414.57 260.162 415.148C260.56 415.718 260.881 416.394 261.123 417.175C261.365 417.949 261.541 418.797 261.65 419.718V420.257C261.541 421.14 261.365 421.961 261.123 422.718C260.881 423.476 260.56 424.14 260.162 424.711C259.771 425.273 259.295 425.711 258.732 426.023C258.17 426.336 257.513 426.492 256.763 426.492C255.974 426.492 255.271 426.332 254.654 426.011C254.045 425.691 253.529 425.242 253.107 424.664C252.693 424.086 252.377 423.406 252.158 422.625C251.939 421.843 251.83 420.992 251.83 420.07ZM255.205 419.824V420.07C255.205 420.593 255.244 421.082 255.322 421.535C255.408 421.988 255.545 422.39 255.732 422.742C255.927 423.086 256.177 423.355 256.482 423.55C256.795 423.738 257.174 423.832 257.619 423.832C258.197 423.832 258.674 423.703 259.049 423.445C259.424 423.179 259.709 422.816 259.904 422.355C260.107 421.894 260.224 421.363 260.256 420.761V419.226C260.232 418.734 260.162 418.293 260.045 417.902C259.935 417.504 259.771 417.164 259.552 416.882C259.342 416.601 259.076 416.382 258.756 416.226C258.443 416.07 258.072 415.992 257.642 415.992C257.205 415.992 256.83 416.093 256.517 416.297C256.205 416.492 255.951 416.761 255.756 417.105C255.568 417.449 255.427 417.855 255.334 418.324C255.248 418.785 255.205 419.285 255.205 419.824ZM270.163 413.578V426.257H266.776V413.578H270.163ZM266.565 410.273C266.565 409.781 266.737 409.375 267.081 409.054C267.425 408.734 267.886 408.574 268.464 408.574C269.034 408.574 269.491 408.734 269.835 409.054C270.187 409.375 270.362 409.781 270.362 410.273C270.362 410.765 270.187 411.172 269.835 411.492C269.491 411.812 269.034 411.972 268.464 411.972C267.886 411.972 267.425 411.812 267.081 411.492C266.737 411.172 266.565 410.765 266.565 410.273ZM273.133 420.047V419.8C273.133 418.871 273.266 418.015 273.532 417.234C273.797 416.445 274.184 415.761 274.692 415.183C275.2 414.605 275.825 414.156 276.567 413.836C277.309 413.507 278.16 413.343 279.121 413.343C280.082 413.343 280.938 413.507 281.688 413.836C282.438 414.156 283.067 414.605 283.575 415.183C284.09 415.761 284.481 416.445 284.746 417.234C285.012 418.015 285.145 418.871 285.145 419.8V420.047C285.145 420.968 285.012 421.824 284.746 422.613C284.481 423.394 284.09 424.078 283.575 424.664C283.067 425.242 282.442 425.691 281.7 426.011C280.957 426.332 280.106 426.492 279.145 426.492C278.184 426.492 277.328 426.332 276.578 426.011C275.836 425.691 275.207 425.242 274.692 424.664C274.184 424.078 273.797 423.394 273.532 422.613C273.266 421.824 273.133 420.968 273.133 420.047ZM276.508 419.8V420.047C276.508 420.578 276.555 421.074 276.649 421.535C276.742 421.996 276.891 422.402 277.094 422.754C277.305 423.097 277.578 423.367 277.914 423.562C278.25 423.757 278.66 423.855 279.145 423.855C279.614 423.855 280.016 423.757 280.352 423.562C280.688 423.367 280.957 423.097 281.16 422.754C281.364 422.402 281.512 421.996 281.606 421.535C281.707 421.074 281.758 420.578 281.758 420.047V419.8C281.758 419.285 281.707 418.8 281.606 418.347C281.512 417.886 281.36 417.48 281.149 417.129C280.946 416.769 280.676 416.488 280.34 416.285C280.004 416.082 279.598 415.98 279.121 415.98C278.645 415.98 278.239 416.082 277.903 416.285C277.575 416.488 277.305 416.769 277.094 417.129C276.891 417.48 276.742 417.886 276.649 418.347C276.555 418.8 276.508 419.285 276.508 419.8Z" fill="white"/>
<path d="M199.334 375.333L202.667 378.667C202.996 378.995 203.385 379.255 203.814 379.433C204.243 379.611 204.703 379.702 205.167 379.702C205.632 379.702 206.091 379.611 206.52 379.433C206.949 379.255 207.339 378.995 207.667 378.667C207.996 378.338 208.256 377.949 208.434 377.52C208.611 377.091 208.703 376.631 208.703 376.167C208.703 375.702 208.611 375.243 208.434 374.814C208.256 374.385 207.996 373.995 207.667 373.667M204.334 370.333L208.501 374.5C209.164 375.163 210.063 375.536 211.001 375.536C211.938 375.536 212.838 375.163 213.501 374.5C214.164 373.837 214.536 372.938 214.536 372C214.536 371.062 214.164 370.163 213.501 369.5L207.034 363.033C206.096 362.097 204.826 361.571 203.501 361.571C202.176 361.571 200.905 362.097 199.967 363.033L198.501 364.5C197.838 365.163 196.938 365.536 196.001 365.536C195.063 365.536 194.164 365.163 193.501 364.5C192.838 363.837 192.465 362.938 192.465 362C192.465 361.062 192.838 360.163 193.501 359.5L198.184 354.817C199.704 353.3 201.687 352.334 203.818 352.072C205.95 351.809 208.108 352.265 209.951 353.367L210.734 353.833C211.444 354.262 212.287 354.41 213.101 354.25L216.001 353.667M216.001 352L217.667 370.333H214.334M186.001 352L184.334 370.333L195.167 381.167C195.83 381.83 196.73 382.202 197.667 382.202C198.605 382.202 199.504 381.83 200.167 381.167C200.83 380.504 201.203 379.604 201.203 378.667C201.203 377.729 200.83 376.83 200.167 376.167M186.001 353.667H199.334" stroke="#3CE5A7" stroke-width="4" stroke-linecap="round" stroke-linejoin="round"/>
<path opacity="0.57" d="M375 522H27" stroke="#22DEFF" stroke-width="3" stroke-linecap="round"/>
<path d="M151.178 662.291V669.053C150.912 669.373 150.502 669.721 149.948 670.096C149.393 670.463 148.678 670.779 147.803 671.045C146.928 671.31 145.869 671.443 144.627 671.443C143.526 671.443 142.522 671.264 141.615 670.904C140.709 670.537 139.928 670.002 139.272 669.299C138.623 668.596 138.123 667.736 137.772 666.721C137.42 665.697 137.244 664.529 137.244 663.217V662.15C137.244 660.838 137.412 659.67 137.748 658.646C138.092 657.623 138.58 656.76 139.213 656.057C139.846 655.353 140.6 654.818 141.475 654.451C142.35 654.084 143.323 653.9 144.393 653.9C145.877 653.9 147.096 654.142 148.049 654.627C149.002 655.103 149.729 655.767 150.229 656.619C150.737 657.463 151.049 658.432 151.166 659.525H147.756C147.67 658.947 147.506 658.443 147.264 658.014C147.022 657.584 146.674 657.248 146.221 657.006C145.776 656.764 145.198 656.642 144.487 656.642C143.901 656.642 143.377 656.764 142.916 657.006C142.463 657.24 142.08 657.588 141.768 658.049C141.455 658.51 141.217 659.08 141.053 659.76C140.889 660.439 140.807 661.228 140.807 662.127V663.217C140.807 664.107 140.893 664.896 141.065 665.584C141.237 666.264 141.49 666.838 141.826 667.307C142.17 667.767 142.592 668.115 143.092 668.349C143.592 668.584 144.174 668.701 144.838 668.701C145.393 668.701 145.854 668.654 146.221 668.56C146.596 668.467 146.897 668.353 147.123 668.221C147.358 668.08 147.537 667.947 147.662 667.822V664.799H144.451V662.291H151.178ZM160.359 671.443C159.375 671.443 158.492 671.287 157.71 670.974C156.929 670.654 156.265 670.213 155.718 669.65C155.179 669.088 154.765 668.435 154.476 667.693C154.187 666.943 154.043 666.146 154.043 665.303V664.834C154.043 663.873 154.179 662.994 154.453 662.197C154.726 661.4 155.117 660.709 155.625 660.123C156.14 659.537 156.765 659.088 157.5 658.775C158.234 658.455 159.062 658.295 159.984 658.295C160.882 658.295 161.679 658.443 162.375 658.74C163.07 659.037 163.652 659.459 164.121 660.006C164.597 660.553 164.957 661.209 165.199 661.974C165.441 662.732 165.562 663.576 165.562 664.506V665.912H155.484V663.662H162.246V663.404C162.246 662.935 162.16 662.517 161.988 662.15C161.824 661.775 161.574 661.478 161.238 661.26C160.902 661.041 160.472 660.932 159.949 660.932C159.503 660.932 159.121 661.029 158.8 661.224C158.48 661.42 158.218 661.693 158.015 662.045C157.82 662.396 157.671 662.81 157.57 663.287C157.476 663.756 157.429 664.271 157.429 664.834V665.303C157.429 665.81 157.5 666.279 157.64 666.709C157.789 667.139 157.996 667.51 158.261 667.822C158.535 668.135 158.863 668.377 159.246 668.549C159.636 668.721 160.078 668.807 160.57 668.807C161.179 668.807 161.746 668.689 162.269 668.455C162.8 668.213 163.257 667.849 163.64 667.365L165.281 669.146C165.015 669.529 164.652 669.896 164.191 670.248C163.738 670.599 163.191 670.889 162.55 671.115C161.91 671.334 161.179 671.443 160.359 671.443ZM174.415 658.529V660.92H167.032V658.529H174.415ZM168.86 655.4H172.235V667.389C172.235 667.756 172.282 668.037 172.376 668.232C172.477 668.428 172.626 668.564 172.821 668.642C173.016 668.713 173.263 668.748 173.559 668.748C173.77 668.748 173.958 668.74 174.122 668.724C174.294 668.701 174.438 668.678 174.555 668.654L174.567 671.139C174.278 671.232 173.966 671.307 173.63 671.361C173.294 671.416 172.923 671.443 172.516 671.443C171.774 671.443 171.126 671.322 170.571 671.08C170.024 670.83 169.602 670.432 169.305 669.885C169.009 669.338 168.86 668.619 168.86 667.728V655.4ZM187.48 654.146V671.209H183.964V654.146H187.48ZM194.277 661.435V664.178H186.519V661.435H194.277ZM195.097 654.146V656.9H186.519V654.146H195.097ZM204.887 668.174V658.529H208.262V671.209H205.087L204.887 668.174ZM205.262 665.572L206.258 665.549C206.258 666.392 206.161 667.178 205.965 667.904C205.77 668.623 205.477 669.248 205.087 669.779C204.696 670.303 204.204 670.713 203.61 671.01C203.016 671.299 202.317 671.443 201.512 671.443C200.895 671.443 200.325 671.357 199.801 671.185C199.286 671.006 198.84 670.728 198.465 670.353C198.098 669.971 197.809 669.482 197.598 668.889C197.395 668.287 197.294 667.564 197.294 666.721V658.529H200.669V666.744C200.669 667.119 200.712 667.435 200.798 667.693C200.891 667.951 201.02 668.162 201.184 668.326C201.348 668.49 201.54 668.607 201.758 668.678C201.985 668.748 202.235 668.783 202.508 668.783C203.204 668.783 203.751 668.642 204.149 668.361C204.555 668.08 204.84 667.697 205.005 667.213C205.176 666.721 205.262 666.174 205.262 665.572ZM214.865 661.236V671.209H211.49V658.529H214.654L214.865 661.236ZM214.373 664.424H213.459C213.459 663.486 213.58 662.642 213.822 661.892C214.064 661.135 214.404 660.49 214.842 659.959C215.279 659.42 215.799 659.01 216.4 658.728C217.01 658.439 217.689 658.295 218.439 658.295C219.033 658.295 219.576 658.381 220.068 658.553C220.56 658.724 220.982 658.998 221.334 659.373C221.693 659.748 221.967 660.244 222.154 660.861C222.35 661.478 222.447 662.232 222.447 663.123V671.209H219.049V663.111C219.049 662.549 218.971 662.111 218.814 661.799C218.658 661.486 218.428 661.267 218.123 661.142C217.826 661.01 217.459 660.943 217.021 660.943C216.568 660.943 216.174 661.033 215.838 661.213C215.51 661.392 215.236 661.642 215.018 661.963C214.807 662.275 214.646 662.642 214.537 663.064C214.428 663.486 214.373 663.939 214.373 664.424ZM233.222 668.443V653.209H236.62V671.209H233.562L233.222 668.443ZM225.206 665.021V664.775C225.206 663.807 225.316 662.928 225.534 662.139C225.753 661.342 226.073 660.658 226.495 660.088C226.917 659.517 227.437 659.076 228.054 658.764C228.671 658.451 229.374 658.295 230.163 658.295C230.905 658.295 231.554 658.451 232.109 658.764C232.671 659.076 233.148 659.521 233.538 660.099C233.937 660.67 234.257 661.346 234.499 662.127C234.741 662.9 234.917 663.748 235.027 664.67V665.209C234.917 666.092 234.741 666.912 234.499 667.67C234.257 668.428 233.937 669.092 233.538 669.662C233.148 670.224 232.671 670.662 232.109 670.974C231.546 671.287 230.89 671.443 230.14 671.443C229.351 671.443 228.648 671.283 228.03 670.963C227.421 670.642 226.905 670.193 226.484 669.615C226.07 669.037 225.753 668.357 225.534 667.576C225.316 666.795 225.206 665.943 225.206 665.021ZM228.581 664.775V665.021C228.581 665.545 228.62 666.033 228.698 666.486C228.784 666.939 228.921 667.342 229.109 667.693C229.304 668.037 229.554 668.307 229.859 668.502C230.171 668.689 230.55 668.783 230.995 668.783C231.573 668.783 232.05 668.654 232.425 668.396C232.8 668.131 233.085 667.767 233.28 667.307C233.484 666.846 233.601 666.314 233.632 665.713V664.178C233.609 663.685 233.538 663.244 233.421 662.853C233.312 662.455 233.148 662.115 232.929 661.834C232.718 661.553 232.452 661.334 232.132 661.178C231.82 661.021 231.448 660.943 231.019 660.943C230.581 660.943 230.206 661.045 229.894 661.248C229.581 661.443 229.327 661.713 229.132 662.057C228.945 662.4 228.804 662.807 228.71 663.275C228.624 663.736 228.581 664.236 228.581 664.775ZM245.813 671.443C244.829 671.443 243.946 671.287 243.165 670.974C242.383 670.654 241.719 670.213 241.172 669.65C240.633 669.088 240.219 668.435 239.93 667.693C239.641 666.943 239.497 666.146 239.497 665.303V664.834C239.497 663.873 239.633 662.994 239.907 662.197C240.18 661.4 240.571 660.709 241.079 660.123C241.594 659.537 242.219 659.088 242.954 658.775C243.688 658.455 244.516 658.295 245.438 658.295C246.336 658.295 247.133 658.443 247.829 658.74C248.524 659.037 249.106 659.459 249.575 660.006C250.051 660.553 250.411 661.209 250.653 661.974C250.895 662.732 251.016 663.576 251.016 664.506V665.912H240.938V663.662H247.7V663.404C247.7 662.935 247.614 662.517 247.442 662.15C247.278 661.775 247.028 661.478 246.692 661.26C246.356 661.041 245.926 660.932 245.403 660.932C244.958 660.932 244.575 661.029 244.254 661.224C243.934 661.42 243.672 661.693 243.469 662.045C243.274 662.396 243.125 662.81 243.024 663.287C242.93 663.756 242.883 664.271 242.883 664.834V665.303C242.883 665.81 242.954 666.279 243.094 666.709C243.243 667.139 243.45 667.51 243.715 667.822C243.989 668.135 244.317 668.377 244.7 668.549C245.09 668.721 245.532 668.807 246.024 668.807C246.633 668.807 247.2 668.689 247.723 668.455C248.254 668.213 248.711 667.849 249.094 667.365L250.735 669.146C250.469 669.529 250.106 669.896 249.645 670.248C249.192 670.599 248.645 670.889 248.004 671.115C247.364 671.334 246.633 671.443 245.813 671.443ZM261.146 668.443V653.209H264.545V671.209H261.486L261.146 668.443ZM253.131 665.021V664.775C253.131 663.807 253.24 662.928 253.459 662.139C253.678 661.342 253.998 660.658 254.42 660.088C254.842 659.517 255.361 659.076 255.978 658.764C256.595 658.451 257.299 658.295 258.088 658.295C258.83 658.295 259.478 658.451 260.033 658.764C260.595 659.076 261.072 659.521 261.463 660.099C261.861 660.67 262.181 661.346 262.424 662.127C262.666 662.9 262.842 663.748 262.951 664.67V665.209C262.842 666.092 262.666 666.912 262.424 667.67C262.181 668.428 261.861 669.092 261.463 669.662C261.072 670.224 260.595 670.662 260.033 670.974C259.47 671.287 258.814 671.443 258.064 671.443C257.275 671.443 256.572 671.283 255.955 670.963C255.345 670.642 254.83 670.193 254.408 669.615C253.994 669.037 253.678 668.357 253.459 667.576C253.24 666.795 253.131 665.943 253.131 665.021ZM256.506 664.775V665.021C256.506 665.545 256.545 666.033 256.623 666.486C256.709 666.939 256.845 667.342 257.033 667.693C257.228 668.037 257.478 668.307 257.783 668.502C258.095 668.689 258.474 668.783 258.92 668.783C259.498 668.783 259.974 668.654 260.349 668.396C260.724 668.131 261.01 667.767 261.205 667.307C261.408 666.846 261.525 666.314 261.556 665.713V664.178C261.533 663.685 261.463 663.244 261.345 662.853C261.236 662.455 261.072 662.115 260.853 661.834C260.642 661.553 260.377 661.334 260.056 661.178C259.744 661.021 259.373 660.943 258.943 660.943C258.506 660.943 258.131 661.045 257.818 661.248C257.506 661.443 257.252 661.713 257.056 662.057C256.869 662.4 256.728 662.807 256.635 663.275C256.549 663.736 256.506 664.236 256.506 664.775Z" fill="white"/>
<path d="M202 604V634M209.5 608.5H198.25C196.858 608.5 195.522 609.053 194.538 610.038C193.553 611.023 193 612.358 193 613.75C193 615.143 193.553 616.478 194.538 617.463C195.522 618.447 196.858 619 198.25 619H205.75C207.142 619 208.478 619.553 209.462 620.538C210.447 621.523 211 622.858 211 624.25C211 625.643 210.447 626.978 209.462 627.963C208.478 628.947 207.142 629.5 205.75 629.5H193" stroke="#3CE5A7" stroke-width="4" stroke-linecap="round" stroke-linejoin="round"/>
<defs>
<linearGradient id="paint0_linear_652_1265" x1="48" y1="13" x2="201" y2="793" gradientUnits="userSpaceOnUse">
<stop stop-color="#3CE5B4"/>
<stop offset="0.220681" stop-color="#114DFF"/>
<stop offset="0.668269" stop-color="#031F75"/>
</linearGradient>
</defs>
</svg>
