<svg width="1127" height="223" viewBox="0 0 1127 223" fill="none" xmlns="http://www.w3.org/2000/svg">
<rect width="1127" height="223" rx="52" fill="url(#paint0_linear_652_1360)"/>
<path d="M180.067 111.855L175.426 126H171.688L178.028 108.938H180.407L180.067 111.855ZM183.922 126L179.27 111.855L178.895 108.938H181.297L187.672 126H183.922ZM183.711 119.648V122.402H174.7V119.648H183.711ZM195.002 123.598C195.416 123.598 195.783 123.52 196.103 123.363C196.423 123.199 196.673 122.973 196.853 122.684C197.041 122.387 197.138 122.039 197.146 121.641H200.322C200.314 122.531 200.076 123.324 199.607 124.02C199.138 124.707 198.509 125.25 197.72 125.648C196.931 126.039 196.048 126.234 195.072 126.234C194.087 126.234 193.228 126.07 192.494 125.742C191.767 125.414 191.162 124.961 190.677 124.383C190.193 123.797 189.83 123.117 189.587 122.344C189.345 121.562 189.224 120.727 189.224 119.836V119.496C189.224 118.598 189.345 117.762 189.587 116.988C189.83 116.207 190.193 115.527 190.677 114.949C191.162 114.363 191.767 113.906 192.494 113.578C193.22 113.25 194.072 113.086 195.048 113.086C196.087 113.086 196.998 113.285 197.779 113.684C198.568 114.082 199.185 114.652 199.63 115.395C200.084 116.129 200.314 117 200.322 118.008H197.146C197.138 117.586 197.048 117.203 196.877 116.859C196.712 116.516 196.47 116.242 196.15 116.039C195.837 115.828 195.451 115.723 194.99 115.723C194.498 115.723 194.095 115.828 193.783 116.039C193.47 116.242 193.228 116.523 193.056 116.883C192.884 117.234 192.763 117.637 192.693 118.09C192.63 118.535 192.599 119.004 192.599 119.496V119.836C192.599 120.328 192.63 120.801 192.693 121.254C192.755 121.707 192.873 122.109 193.045 122.461C193.224 122.812 193.47 123.09 193.783 123.293C194.095 123.496 194.502 123.598 195.002 123.598ZM208.237 123.598C208.651 123.598 209.018 123.52 209.339 123.363C209.659 123.199 209.909 122.973 210.089 122.684C210.276 122.387 210.374 122.039 210.382 121.641H213.558C213.55 122.531 213.311 123.324 212.843 124.02C212.374 124.707 211.745 125.25 210.956 125.648C210.167 126.039 209.284 126.234 208.308 126.234C207.323 126.234 206.464 126.07 205.729 125.742C205.003 125.414 204.397 124.961 203.913 124.383C203.429 123.797 203.065 123.117 202.823 122.344C202.581 121.562 202.46 120.727 202.46 119.836V119.496C202.46 118.598 202.581 117.762 202.823 116.988C203.065 116.207 203.429 115.527 203.913 114.949C204.397 114.363 205.003 113.906 205.729 113.578C206.456 113.25 207.308 113.086 208.284 113.086C209.323 113.086 210.233 113.285 211.015 113.684C211.804 114.082 212.421 114.652 212.866 115.395C213.319 116.129 213.55 117 213.558 118.008H210.382C210.374 117.586 210.284 117.203 210.112 116.859C209.948 116.516 209.706 116.242 209.386 116.039C209.073 115.828 208.686 115.723 208.225 115.723C207.733 115.723 207.331 115.828 207.018 116.039C206.706 116.242 206.464 116.523 206.292 116.883C206.12 117.234 205.999 117.637 205.929 118.09C205.866 118.535 205.835 119.004 205.835 119.496V119.836C205.835 120.328 205.866 120.801 205.929 121.254C205.991 121.707 206.108 122.109 206.28 122.461C206.46 122.812 206.706 123.09 207.018 123.293C207.331 123.496 207.737 123.598 208.237 123.598ZM222.07 126.234C221.086 126.234 220.203 126.078 219.422 125.766C218.641 125.445 217.977 125.004 217.43 124.441C216.891 123.879 216.477 123.227 216.188 122.484C215.899 121.734 215.754 120.938 215.754 120.094V119.625C215.754 118.664 215.891 117.785 216.164 116.988C216.438 116.191 216.828 115.5 217.336 114.914C217.852 114.328 218.477 113.879 219.211 113.566C219.945 113.246 220.774 113.086 221.695 113.086C222.594 113.086 223.391 113.234 224.086 113.531C224.781 113.828 225.363 114.25 225.832 114.797C226.309 115.344 226.668 116 226.91 116.766C227.153 117.523 227.274 118.367 227.274 119.297V120.703H217.195V118.453H223.957V118.195C223.957 117.727 223.871 117.309 223.699 116.941C223.535 116.566 223.285 116.27 222.949 116.051C222.613 115.832 222.184 115.723 221.66 115.723C221.215 115.723 220.832 115.82 220.512 116.016C220.192 116.211 219.93 116.484 219.727 116.836C219.531 117.188 219.383 117.602 219.281 118.078C219.188 118.547 219.141 119.062 219.141 119.625V120.094C219.141 120.602 219.211 121.07 219.352 121.5C219.5 121.93 219.707 122.301 219.973 122.613C220.246 122.926 220.574 123.168 220.957 123.34C221.348 123.512 221.789 123.598 222.281 123.598C222.891 123.598 223.457 123.48 223.981 123.246C224.512 123.004 224.969 122.641 225.352 122.156L226.992 123.938C226.727 124.32 226.363 124.688 225.903 125.039C225.449 125.391 224.903 125.68 224.262 125.906C223.621 126.125 222.891 126.234 222.07 126.234ZM233.478 108V126H230.091V108H233.478ZM242.823 126.234C241.839 126.234 240.956 126.078 240.175 125.766C239.393 125.445 238.729 125.004 238.182 124.441C237.643 123.879 237.229 123.227 236.94 122.484C236.651 121.734 236.507 120.938 236.507 120.094V119.625C236.507 118.664 236.643 117.785 236.917 116.988C237.19 116.191 237.581 115.5 238.089 114.914C238.604 114.328 239.229 113.879 239.964 113.566C240.698 113.246 241.526 113.086 242.448 113.086C243.346 113.086 244.143 113.234 244.839 113.531C245.534 113.828 246.116 114.25 246.585 114.797C247.061 115.344 247.421 116 247.663 116.766C247.905 117.523 248.026 118.367 248.026 119.297V120.703H237.948V118.453H244.71V118.195C244.71 117.727 244.624 117.309 244.452 116.941C244.288 116.566 244.038 116.27 243.702 116.051C243.366 115.832 242.936 115.723 242.413 115.723C241.967 115.723 241.585 115.82 241.264 116.016C240.944 116.211 240.682 116.484 240.479 116.836C240.284 117.188 240.135 117.602 240.034 118.078C239.94 118.547 239.893 119.062 239.893 119.625V120.094C239.893 120.602 239.964 121.07 240.104 121.5C240.253 121.93 240.46 122.301 240.725 122.613C240.999 122.926 241.327 123.168 241.71 123.34C242.1 123.512 242.542 123.598 243.034 123.598C243.643 123.598 244.21 123.48 244.733 123.246C245.264 123.004 245.721 122.641 246.104 122.156L247.745 123.938C247.479 124.32 247.116 124.688 246.655 125.039C246.202 125.391 245.655 125.68 245.014 125.906C244.374 126.125 243.643 126.234 242.823 126.234ZM254.043 116.086V126H250.668V113.32H253.844L254.043 116.086ZM257.863 113.238L257.805 116.367C257.641 116.344 257.441 116.324 257.207 116.309C256.98 116.285 256.773 116.273 256.586 116.273C256.109 116.273 255.695 116.336 255.344 116.461C255 116.578 254.711 116.754 254.477 116.988C254.25 117.223 254.078 117.508 253.961 117.844C253.852 118.18 253.789 118.562 253.773 118.992L253.094 118.781C253.094 117.961 253.176 117.207 253.34 116.52C253.504 115.824 253.742 115.219 254.055 114.703C254.375 114.188 254.766 113.789 255.227 113.508C255.688 113.227 256.215 113.086 256.809 113.086C256.996 113.086 257.188 113.102 257.383 113.133C257.578 113.156 257.738 113.191 257.863 113.238ZM266.622 123.141V117.492C266.622 117.086 266.556 116.738 266.423 116.449C266.29 116.152 266.083 115.922 265.802 115.758C265.529 115.594 265.173 115.512 264.736 115.512C264.361 115.512 264.036 115.578 263.763 115.711C263.49 115.836 263.279 116.02 263.13 116.262C262.982 116.496 262.908 116.773 262.908 117.094H259.533C259.533 116.555 259.658 116.043 259.908 115.559C260.158 115.074 260.521 114.648 260.997 114.281C261.474 113.906 262.04 113.613 262.697 113.402C263.361 113.191 264.103 113.086 264.923 113.086C265.908 113.086 266.783 113.25 267.548 113.578C268.314 113.906 268.915 114.398 269.353 115.055C269.798 115.711 270.021 116.531 270.021 117.516V122.941C270.021 123.637 270.064 124.207 270.15 124.652C270.236 125.09 270.361 125.473 270.525 125.801V126H267.115C266.95 125.656 266.825 125.227 266.74 124.711C266.661 124.188 266.622 123.664 266.622 123.141ZM267.068 118.277L267.091 120.188H265.204C264.759 120.188 264.372 120.238 264.044 120.34C263.716 120.441 263.447 120.586 263.236 120.773C263.025 120.953 262.868 121.164 262.767 121.406C262.673 121.648 262.626 121.914 262.626 122.203C262.626 122.492 262.693 122.754 262.825 122.988C262.958 123.215 263.15 123.395 263.4 123.527C263.65 123.652 263.943 123.715 264.279 123.715C264.786 123.715 265.228 123.613 265.603 123.41C265.978 123.207 266.267 122.957 266.47 122.66C266.681 122.363 266.79 122.082 266.798 121.816L267.689 123.246C267.564 123.566 267.392 123.898 267.173 124.242C266.962 124.586 266.693 124.91 266.365 125.215C266.036 125.512 265.642 125.758 265.181 125.953C264.72 126.141 264.173 126.234 263.54 126.234C262.736 126.234 262.005 126.074 261.349 125.754C260.7 125.426 260.185 124.977 259.802 124.406C259.427 123.828 259.24 123.172 259.24 122.438C259.24 121.773 259.365 121.184 259.615 120.668C259.865 120.152 260.232 119.719 260.716 119.367C261.208 119.008 261.822 118.738 262.556 118.559C263.29 118.371 264.142 118.277 265.111 118.277H267.068ZM279.553 113.32V115.711H272.17V113.32H279.553ZM273.999 110.191H277.374V122.18C277.374 122.547 277.42 122.828 277.514 123.023C277.616 123.219 277.764 123.355 277.96 123.434C278.155 123.504 278.401 123.539 278.698 123.539C278.909 123.539 279.096 123.531 279.26 123.516C279.432 123.492 279.577 123.469 279.694 123.445L279.706 125.93C279.417 126.023 279.104 126.098 278.768 126.152C278.432 126.207 278.061 126.234 277.655 126.234C276.913 126.234 276.264 126.113 275.71 125.871C275.163 125.621 274.741 125.223 274.444 124.676C274.147 124.129 273.999 123.41 273.999 122.52V110.191ZM285.758 113.32V126H282.371V113.32H285.758ZM282.16 110.016C282.16 109.523 282.332 109.117 282.676 108.797C283.019 108.477 283.48 108.316 284.058 108.316C284.629 108.316 285.086 108.477 285.43 108.797C285.781 109.117 285.957 109.523 285.957 110.016C285.957 110.508 285.781 110.914 285.43 111.234C285.086 111.555 284.629 111.715 284.058 111.715C283.48 111.715 283.019 111.555 282.676 111.234C282.332 110.914 282.16 110.508 282.16 110.016ZM288.728 119.789V119.543C288.728 118.613 288.86 117.758 289.126 116.977C289.392 116.188 289.778 115.504 290.286 114.926C290.794 114.348 291.419 113.898 292.161 113.578C292.903 113.25 293.755 113.086 294.716 113.086C295.677 113.086 296.532 113.25 297.282 113.578C298.032 113.898 298.661 114.348 299.169 114.926C299.685 115.504 300.075 116.188 300.341 116.977C300.607 117.758 300.739 118.613 300.739 119.543V119.789C300.739 120.711 300.607 121.566 300.341 122.355C300.075 123.137 299.685 123.82 299.169 124.406C298.661 124.984 298.036 125.434 297.294 125.754C296.552 126.074 295.7 126.234 294.739 126.234C293.778 126.234 292.923 126.074 292.173 125.754C291.431 125.434 290.802 124.984 290.286 124.406C289.778 123.82 289.392 123.137 289.126 122.355C288.86 121.566 288.728 120.711 288.728 119.789ZM292.103 119.543V119.789C292.103 120.32 292.15 120.816 292.243 121.277C292.337 121.738 292.485 122.145 292.689 122.496C292.9 122.84 293.173 123.109 293.509 123.305C293.845 123.5 294.255 123.598 294.739 123.598C295.208 123.598 295.61 123.5 295.946 123.305C296.282 123.109 296.552 122.84 296.755 122.496C296.958 122.145 297.107 121.738 297.2 121.277C297.302 120.816 297.353 120.32 297.353 119.789V119.543C297.353 119.027 297.302 118.543 297.2 118.09C297.107 117.629 296.954 117.223 296.743 116.871C296.54 116.512 296.271 116.23 295.935 116.027C295.599 115.824 295.193 115.723 294.716 115.723C294.239 115.723 293.833 115.824 293.497 116.027C293.169 116.23 292.9 116.512 292.689 116.871C292.485 117.223 292.337 117.629 292.243 118.09C292.15 118.543 292.103 119.027 292.103 119.543ZM306.838 116.027V126H303.463V113.32H306.627L306.838 116.027ZM306.346 119.215H305.432C305.432 118.277 305.553 117.434 305.795 116.684C306.038 115.926 306.377 115.281 306.815 114.75C307.252 114.211 307.772 113.801 308.373 113.52C308.983 113.23 309.663 113.086 310.413 113.086C311.006 113.086 311.549 113.172 312.041 113.344C312.534 113.516 312.955 113.789 313.307 114.164C313.666 114.539 313.94 115.035 314.127 115.652C314.323 116.27 314.42 117.023 314.42 117.914V126H311.022V117.902C311.022 117.34 310.944 116.902 310.788 116.59C310.631 116.277 310.401 116.059 310.096 115.934C309.799 115.801 309.432 115.734 308.995 115.734C308.541 115.734 308.147 115.824 307.811 116.004C307.483 116.184 307.209 116.434 306.991 116.754C306.78 117.066 306.62 117.434 306.51 117.855C306.401 118.277 306.346 118.73 306.346 119.215ZM203.414 143.918H199.067V141.176H203.414C204.086 141.176 204.633 141.066 205.055 140.848C205.477 140.621 205.785 140.309 205.981 139.91C206.176 139.512 206.274 139.062 206.274 138.562C206.274 138.055 206.176 137.582 205.981 137.145C205.785 136.707 205.477 136.355 205.055 136.09C204.633 135.824 204.086 135.691 203.414 135.691H200.285V150H196.77V132.938H203.414C204.75 132.938 205.895 133.18 206.848 133.664C207.809 134.141 208.543 134.801 209.051 135.645C209.559 136.488 209.813 137.453 209.813 138.539C209.813 139.641 209.559 140.594 209.051 141.398C208.543 142.203 207.809 142.824 206.848 143.262C205.895 143.699 204.75 143.918 203.414 143.918ZM216.122 140.086V150H212.747V137.32H215.923L216.122 140.086ZM219.943 137.238L219.884 140.367C219.72 140.344 219.521 140.324 219.287 140.309C219.06 140.285 218.853 140.273 218.665 140.273C218.189 140.273 217.775 140.336 217.423 140.461C217.08 140.578 216.79 140.754 216.556 140.988C216.33 141.223 216.158 141.508 216.04 141.844C215.931 142.18 215.869 142.562 215.853 142.992L215.173 142.781C215.173 141.961 215.255 141.207 215.419 140.52C215.583 139.824 215.822 139.219 216.134 138.703C216.455 138.188 216.845 137.789 217.306 137.508C217.767 137.227 218.294 137.086 218.888 137.086C219.076 137.086 219.267 137.102 219.462 137.133C219.658 137.156 219.818 137.191 219.943 137.238ZM221.366 143.789V143.543C221.366 142.613 221.499 141.758 221.764 140.977C222.03 140.188 222.417 139.504 222.925 138.926C223.432 138.348 224.057 137.898 224.8 137.578C225.542 137.25 226.393 137.086 227.354 137.086C228.315 137.086 229.171 137.25 229.921 137.578C230.671 137.898 231.3 138.348 231.807 138.926C232.323 139.504 232.714 140.188 232.979 140.977C233.245 141.758 233.378 142.613 233.378 143.543V143.789C233.378 144.711 233.245 145.566 232.979 146.355C232.714 147.137 232.323 147.82 231.807 148.406C231.3 148.984 230.675 149.434 229.932 149.754C229.19 150.074 228.339 150.234 227.378 150.234C226.417 150.234 225.561 150.074 224.811 149.754C224.069 149.434 223.44 148.984 222.925 148.406C222.417 147.82 222.03 147.137 221.764 146.355C221.499 145.566 221.366 144.711 221.366 143.789ZM224.741 143.543V143.789C224.741 144.32 224.788 144.816 224.882 145.277C224.975 145.738 225.124 146.145 225.327 146.496C225.538 146.84 225.811 147.109 226.147 147.305C226.483 147.5 226.893 147.598 227.378 147.598C227.846 147.598 228.249 147.5 228.585 147.305C228.921 147.109 229.19 146.84 229.393 146.496C229.596 146.145 229.745 145.738 229.839 145.277C229.94 144.816 229.991 144.32 229.991 143.789V143.543C229.991 143.027 229.94 142.543 229.839 142.09C229.745 141.629 229.592 141.223 229.382 140.871C229.178 140.512 228.909 140.23 228.573 140.027C228.237 139.824 227.831 139.723 227.354 139.723C226.878 139.723 226.471 139.824 226.135 140.027C225.807 140.23 225.538 140.512 225.327 140.871C225.124 141.223 224.975 141.629 224.882 142.09C224.788 142.543 224.741 143.027 224.741 143.543ZM244.199 137.32H247.258V149.578C247.258 150.734 247 151.715 246.484 152.52C245.977 153.332 245.266 153.945 244.352 154.359C243.438 154.781 242.375 154.992 241.164 154.992C240.633 154.992 240.07 154.922 239.477 154.781C238.891 154.641 238.328 154.422 237.789 154.125C237.258 153.828 236.812 153.453 236.453 153L237.941 151.008C238.332 151.461 238.785 151.812 239.301 152.062C239.816 152.32 240.387 152.449 241.012 152.449C241.621 152.449 242.137 152.336 242.559 152.109C242.98 151.891 243.305 151.566 243.531 151.137C243.758 150.715 243.871 150.203 243.871 149.602V140.25L244.199 137.32ZM235.668 143.812V143.566C235.668 142.598 235.785 141.719 236.02 140.93C236.262 140.133 236.602 139.449 237.039 138.879C237.484 138.309 238.023 137.867 238.656 137.555C239.289 137.242 240.004 137.086 240.801 137.086C241.645 137.086 242.352 137.242 242.922 137.555C243.492 137.867 243.961 138.312 244.328 138.891C244.695 139.461 244.98 140.137 245.184 140.918C245.395 141.691 245.559 142.539 245.676 143.461V144C245.559 144.883 245.383 145.703 245.148 146.461C244.914 147.219 244.605 147.883 244.223 148.453C243.84 149.016 243.363 149.453 242.793 149.766C242.23 150.078 241.559 150.234 240.777 150.234C239.996 150.234 239.289 150.074 238.656 149.754C238.031 149.434 237.496 148.984 237.051 148.406C236.605 147.828 236.262 147.148 236.02 146.367C235.785 145.586 235.668 144.734 235.668 143.812ZM239.043 143.566V143.812C239.043 144.336 239.094 144.824 239.195 145.277C239.297 145.73 239.453 146.133 239.664 146.484C239.883 146.828 240.152 147.098 240.473 147.293C240.801 147.48 241.188 147.574 241.633 147.574C242.25 147.574 242.754 147.445 243.145 147.188C243.535 146.922 243.828 146.559 244.023 146.098C244.219 145.637 244.332 145.105 244.363 144.504V142.969C244.348 142.477 244.281 142.035 244.164 141.645C244.047 141.246 243.883 140.906 243.672 140.625C243.461 140.344 243.188 140.125 242.852 139.969C242.516 139.812 242.117 139.734 241.656 139.734C241.211 139.734 240.824 139.836 240.496 140.039C240.176 140.234 239.906 140.504 239.688 140.848C239.477 141.191 239.316 141.598 239.207 142.066C239.098 142.527 239.043 143.027 239.043 143.566ZM253.978 140.086V150H250.603V137.32H253.779L253.978 140.086ZM257.798 137.238L257.74 140.367C257.575 140.344 257.376 140.324 257.142 140.309C256.915 140.285 256.708 140.273 256.521 140.273C256.044 140.273 255.63 140.336 255.279 140.461C254.935 140.578 254.646 140.754 254.411 140.988C254.185 141.223 254.013 141.508 253.896 141.844C253.786 142.18 253.724 142.562 253.708 142.992L253.029 142.781C253.029 141.961 253.111 141.207 253.275 140.52C253.439 139.824 253.677 139.219 253.99 138.703C254.31 138.188 254.7 137.789 255.161 137.508C255.622 137.227 256.15 137.086 256.743 137.086C256.931 137.086 257.122 137.102 257.318 137.133C257.513 137.156 257.673 137.191 257.798 137.238ZM266.557 147.141V141.492C266.557 141.086 266.491 140.738 266.358 140.449C266.225 140.152 266.018 139.922 265.737 139.758C265.463 139.594 265.108 139.512 264.67 139.512C264.295 139.512 263.971 139.578 263.698 139.711C263.424 139.836 263.213 140.02 263.065 140.262C262.917 140.496 262.842 140.773 262.842 141.094H259.467C259.467 140.555 259.592 140.043 259.842 139.559C260.092 139.074 260.456 138.648 260.932 138.281C261.409 137.906 261.975 137.613 262.631 137.402C263.295 137.191 264.038 137.086 264.858 137.086C265.842 137.086 266.717 137.25 267.483 137.578C268.249 137.906 268.85 138.398 269.288 139.055C269.733 139.711 269.956 140.531 269.956 141.516V146.941C269.956 147.637 269.999 148.207 270.085 148.652C270.17 149.09 270.295 149.473 270.46 149.801V150H267.049C266.885 149.656 266.76 149.227 266.674 148.711C266.596 148.188 266.557 147.664 266.557 147.141ZM267.003 142.277L267.026 144.188H265.139C264.694 144.188 264.307 144.238 263.979 144.34C263.651 144.441 263.381 144.586 263.17 144.773C262.96 144.953 262.803 145.164 262.702 145.406C262.608 145.648 262.561 145.914 262.561 146.203C262.561 146.492 262.628 146.754 262.76 146.988C262.893 147.215 263.085 147.395 263.335 147.527C263.585 147.652 263.878 147.715 264.213 147.715C264.721 147.715 265.163 147.613 265.538 147.41C265.913 147.207 266.202 146.957 266.405 146.66C266.616 146.363 266.725 146.082 266.733 145.816L267.624 147.246C267.499 147.566 267.327 147.898 267.108 148.242C266.897 148.586 266.628 148.91 266.299 149.215C265.971 149.512 265.577 149.758 265.116 149.953C264.655 150.141 264.108 150.234 263.475 150.234C262.67 150.234 261.94 150.074 261.284 149.754C260.635 149.426 260.12 148.977 259.737 148.406C259.362 147.828 259.174 147.172 259.174 146.438C259.174 145.773 259.299 145.184 259.549 144.668C259.799 144.152 260.167 143.719 260.651 143.367C261.143 143.008 261.756 142.738 262.491 142.559C263.225 142.371 264.077 142.277 265.045 142.277H267.003ZM276.652 139.945V150H273.265V137.32H276.441L276.652 139.945ZM276.183 143.215H275.246C275.246 142.332 275.351 141.52 275.562 140.777C275.781 140.027 276.098 139.379 276.512 138.832C276.933 138.277 277.453 137.848 278.07 137.543C278.687 137.238 279.402 137.086 280.215 137.086C280.777 137.086 281.293 137.172 281.762 137.344C282.23 137.508 282.633 137.77 282.969 138.129C283.312 138.48 283.578 138.941 283.765 139.512C283.953 140.074 284.047 140.75 284.047 141.539V150H280.672V141.914C280.672 141.336 280.594 140.891 280.437 140.578C280.281 140.266 280.058 140.047 279.769 139.922C279.488 139.797 279.148 139.734 278.75 139.734C278.312 139.734 277.93 139.824 277.601 140.004C277.281 140.184 277.015 140.434 276.805 140.754C276.594 141.066 276.437 141.434 276.336 141.855C276.234 142.277 276.183 142.73 276.183 143.215ZM283.73 142.828L282.523 142.98C282.523 142.152 282.625 141.383 282.828 140.672C283.039 139.961 283.348 139.336 283.754 138.797C284.168 138.258 284.68 137.84 285.289 137.543C285.898 137.238 286.601 137.086 287.398 137.086C288.008 137.086 288.562 137.176 289.062 137.355C289.562 137.527 289.988 137.805 290.34 138.188C290.699 138.562 290.973 139.055 291.16 139.664C291.355 140.273 291.453 141.02 291.453 141.902V150H288.066V141.902C288.066 141.316 287.988 140.871 287.832 140.566C287.683 140.254 287.465 140.039 287.176 139.922C286.894 139.797 286.558 139.734 286.168 139.734C285.762 139.734 285.406 139.816 285.101 139.98C284.797 140.137 284.543 140.355 284.34 140.637C284.137 140.918 283.984 141.246 283.883 141.621C283.781 141.988 283.73 142.391 283.73 142.828Z" fill="white"/>
<path d="M244.001 84.75L239.251 80M244.001 84.75C246.212 83.9088 248.334 82.848 250.334 81.5833M244.001 84.75V92.6666C244.001 92.6666 248.798 91.7958 250.334 89.5C252.044 86.935 250.334 81.5833 250.334 81.5833M239.251 80C240.093 77.8141 241.154 75.7187 242.417 73.7458C244.262 70.796 246.831 68.3673 249.88 66.6906C252.928 65.0139 256.355 64.1451 259.834 64.1667C259.834 68.4733 258.599 76.0416 250.334 81.5833M239.251 80H231.334C231.334 80 232.205 75.2025 234.501 73.6666C237.066 71.9567 242.417 73.6666 242.417 73.6666M232.126 87.125C229.751 89.12 228.959 95.0416 228.959 95.0416C228.959 95.0416 234.881 94.25 236.876 91.875C238 90.545 237.984 88.5025 236.733 87.2675C236.118 86.6801 235.307 86.3407 234.457 86.3144C233.606 86.2881 232.776 86.5767 232.126 87.125Z" stroke="#3CE5A7" stroke-width="4" stroke-linecap="round" stroke-linejoin="round"/>
<path d="M397 48V176" stroke="#5781FF" stroke-width="2"/>
<path d="M492.118 139.438L496.137 125.938H500.051L494.11 143H491.532L492.118 139.438ZM488.414 125.938L492.422 139.438L493.032 143H490.43L484.524 125.938H488.414ZM507.474 143.234C506.49 143.234 505.607 143.078 504.826 142.766C504.045 142.445 503.38 142.004 502.834 141.441C502.295 140.879 501.88 140.227 501.591 139.484C501.302 138.734 501.158 137.938 501.158 137.094V136.625C501.158 135.664 501.295 134.785 501.568 133.988C501.841 133.191 502.232 132.5 502.74 131.914C503.255 131.328 503.88 130.879 504.615 130.566C505.349 130.246 506.177 130.086 507.099 130.086C507.998 130.086 508.795 130.234 509.49 130.531C510.185 130.828 510.767 131.25 511.236 131.797C511.713 132.344 512.072 133 512.314 133.766C512.556 134.523 512.677 135.367 512.677 136.297V137.703H502.599V135.453H509.361V135.195C509.361 134.727 509.275 134.309 509.103 133.941C508.939 133.566 508.689 133.27 508.353 133.051C508.017 132.832 507.588 132.723 507.064 132.723C506.619 132.723 506.236 132.82 505.916 133.016C505.595 133.211 505.334 133.484 505.13 133.836C504.935 134.188 504.787 134.602 504.685 135.078C504.591 135.547 504.545 136.062 504.545 136.625V137.094C504.545 137.602 504.615 138.07 504.755 138.5C504.904 138.93 505.111 139.301 505.377 139.613C505.65 139.926 505.978 140.168 506.361 140.34C506.752 140.512 507.193 140.598 507.685 140.598C508.295 140.598 508.861 140.48 509.384 140.246C509.916 140.004 510.373 139.641 510.755 139.156L512.396 140.938C512.13 141.32 511.767 141.688 511.306 142.039C510.853 142.391 510.306 142.68 509.666 142.906C509.025 143.125 508.295 143.234 507.474 143.234ZM518.624 133.027V143H515.249V130.32H518.413L518.624 133.027ZM518.132 136.215H517.218C517.218 135.277 517.339 134.434 517.581 133.684C517.823 132.926 518.163 132.281 518.6 131.75C519.038 131.211 519.557 130.801 520.159 130.52C520.768 130.23 521.448 130.086 522.198 130.086C522.792 130.086 523.335 130.172 523.827 130.344C524.319 130.516 524.741 130.789 525.093 131.164C525.452 131.539 525.725 132.035 525.913 132.652C526.108 133.27 526.206 134.023 526.206 134.914V143H522.807V134.902C522.807 134.34 522.729 133.902 522.573 133.59C522.417 133.277 522.186 133.059 521.882 132.934C521.585 132.801 521.218 132.734 520.78 132.734C520.327 132.734 519.932 132.824 519.597 133.004C519.268 133.184 518.995 133.434 518.776 133.754C518.565 134.066 518.405 134.434 518.296 134.855C518.186 135.277 518.132 135.73 518.132 136.215ZM535.703 130.32V132.711H528.32V130.32H535.703ZM530.149 127.191H533.524V139.18C533.524 139.547 533.57 139.828 533.664 140.023C533.766 140.219 533.914 140.355 534.11 140.434C534.305 140.504 534.551 140.539 534.848 140.539C535.059 140.539 535.246 140.531 535.41 140.516C535.582 140.492 535.727 140.469 535.844 140.445L535.856 142.93C535.567 143.023 535.254 143.098 534.918 143.152C534.582 143.207 534.211 143.234 533.805 143.234C533.063 143.234 532.414 143.113 531.86 142.871C531.313 142.621 530.891 142.223 530.594 141.676C530.297 141.129 530.149 140.41 530.149 139.52V127.191ZM545.845 139.965V130.32H549.22V143H546.044L545.845 139.965ZM546.22 137.363L547.216 137.34C547.216 138.184 547.119 138.969 546.923 139.695C546.728 140.414 546.435 141.039 546.044 141.57C545.654 142.094 545.162 142.504 544.568 142.801C543.974 143.09 543.275 143.234 542.47 143.234C541.853 143.234 541.283 143.148 540.759 142.977C540.244 142.797 539.798 142.52 539.423 142.145C539.056 141.762 538.767 141.273 538.556 140.68C538.353 140.078 538.251 139.355 538.251 138.512V130.32H541.626V138.535C541.626 138.91 541.669 139.227 541.755 139.484C541.849 139.742 541.978 139.953 542.142 140.117C542.306 140.281 542.497 140.398 542.716 140.469C542.943 140.539 543.193 140.574 543.466 140.574C544.162 140.574 544.708 140.434 545.107 140.152C545.513 139.871 545.798 139.488 545.962 139.004C546.134 138.512 546.22 137.965 546.22 137.363ZM555.893 133.086V143H552.518V130.32H555.694L555.893 133.086ZM559.714 130.238L559.655 133.367C559.491 133.344 559.292 133.324 559.057 133.309C558.831 133.285 558.624 133.273 558.436 133.273C557.96 133.273 557.546 133.336 557.194 133.461C556.85 133.578 556.561 133.754 556.327 133.988C556.1 134.223 555.928 134.508 555.811 134.844C555.702 135.18 555.639 135.562 555.624 135.992L554.944 135.781C554.944 134.961 555.026 134.207 555.19 133.52C555.354 132.824 555.592 132.219 555.905 131.703C556.225 131.188 556.616 130.789 557.077 130.508C557.538 130.227 558.065 130.086 558.659 130.086C558.846 130.086 559.038 130.102 559.233 130.133C559.428 130.156 559.589 130.191 559.714 130.238ZM567.629 143.234C566.645 143.234 565.762 143.078 564.98 142.766C564.199 142.445 563.535 142.004 562.988 141.441C562.449 140.879 562.035 140.227 561.746 139.484C561.457 138.734 561.312 137.938 561.312 137.094V136.625C561.312 135.664 561.449 134.785 561.723 133.988C561.996 133.191 562.387 132.5 562.895 131.914C563.41 131.328 564.035 130.879 564.77 130.566C565.504 130.246 566.332 130.086 567.254 130.086C568.152 130.086 568.949 130.234 569.645 130.531C570.34 130.828 570.922 131.25 571.391 131.797C571.867 132.344 572.227 133 572.469 133.766C572.711 134.523 572.832 135.367 572.832 136.297V137.703H562.754V135.453H569.516V135.195C569.516 134.727 569.43 134.309 569.258 133.941C569.094 133.566 568.844 133.27 568.508 133.051C568.172 132.832 567.742 132.723 567.219 132.723C566.773 132.723 566.391 132.82 566.07 133.016C565.75 133.211 565.488 133.484 565.285 133.836C565.09 134.188 564.941 134.602 564.84 135.078C564.746 135.547 564.699 136.062 564.699 136.625V137.094C564.699 137.602 564.77 138.07 564.91 138.5C565.059 138.93 565.266 139.301 565.531 139.613C565.805 139.926 566.133 140.168 566.516 140.34C566.906 140.512 567.348 140.598 567.84 140.598C568.449 140.598 569.016 140.48 569.539 140.246C570.07 140.004 570.527 139.641 570.91 139.156L572.551 140.938C572.285 141.32 571.922 141.688 571.461 142.039C571.008 142.391 570.461 142.68 569.82 142.906C569.18 143.125 568.449 143.234 567.629 143.234ZM591.264 138.535C591.264 138.23 591.217 137.957 591.124 137.715C591.038 137.465 590.874 137.238 590.631 137.035C590.389 136.824 590.049 136.617 589.612 136.414C589.174 136.211 588.608 136 587.913 135.781C587.139 135.531 586.405 135.25 585.71 134.938C585.022 134.625 584.413 134.262 583.881 133.848C583.358 133.426 582.944 132.938 582.639 132.383C582.342 131.828 582.194 131.184 582.194 130.449C582.194 129.738 582.35 129.094 582.663 128.516C582.975 127.93 583.413 127.43 583.975 127.016C584.538 126.594 585.202 126.27 585.967 126.043C586.741 125.816 587.588 125.703 588.51 125.703C589.768 125.703 590.866 125.93 591.803 126.383C592.741 126.836 593.467 127.457 593.983 128.246C594.506 129.035 594.768 129.938 594.768 130.953H591.276C591.276 130.453 591.17 130.016 590.96 129.641C590.756 129.258 590.444 128.957 590.022 128.738C589.608 128.52 589.085 128.41 588.452 128.41C587.842 128.41 587.335 128.504 586.928 128.691C586.522 128.871 586.217 129.117 586.014 129.43C585.811 129.734 585.71 130.078 585.71 130.461C585.71 130.75 585.78 131.012 585.92 131.246C586.069 131.48 586.288 131.699 586.577 131.902C586.866 132.105 587.221 132.297 587.643 132.477C588.065 132.656 588.553 132.832 589.108 133.004C590.038 133.285 590.854 133.602 591.557 133.953C592.268 134.305 592.862 134.699 593.338 135.137C593.815 135.574 594.174 136.07 594.417 136.625C594.659 137.18 594.78 137.809 594.78 138.512C594.78 139.254 594.635 139.918 594.346 140.504C594.057 141.09 593.639 141.586 593.092 141.992C592.545 142.398 591.893 142.707 591.135 142.918C590.378 143.129 589.53 143.234 588.592 143.234C587.749 143.234 586.917 143.125 586.096 142.906C585.276 142.68 584.53 142.34 583.858 141.887C583.194 141.434 582.663 140.855 582.264 140.152C581.866 139.449 581.667 138.617 581.667 137.656H585.194C585.194 138.188 585.276 138.637 585.44 139.004C585.604 139.371 585.835 139.668 586.131 139.895C586.436 140.121 586.795 140.285 587.21 140.387C587.631 140.488 588.092 140.539 588.592 140.539C589.202 140.539 589.702 140.453 590.092 140.281C590.491 140.109 590.784 139.871 590.971 139.566C591.167 139.262 591.264 138.918 591.264 138.535ZM603.89 130.32V132.711H596.508V130.32H603.89ZM598.336 127.191H601.711V139.18C601.711 139.547 601.758 139.828 601.851 140.023C601.953 140.219 602.101 140.355 602.297 140.434C602.492 140.504 602.738 140.539 603.035 140.539C603.246 140.539 603.433 140.531 603.598 140.516C603.769 140.492 603.914 140.469 604.031 140.445L604.043 142.93C603.754 143.023 603.441 143.098 603.105 143.152C602.769 143.207 602.398 143.234 601.992 143.234C601.25 143.234 600.601 143.113 600.047 142.871C599.5 142.621 599.078 142.223 598.781 141.676C598.484 141.129 598.336 140.41 598.336 139.52V127.191ZM614.032 139.965V130.32H617.407V143H614.232L614.032 139.965ZM614.407 137.363L615.403 137.34C615.403 138.184 615.306 138.969 615.11 139.695C614.915 140.414 614.622 141.039 614.232 141.57C613.841 142.094 613.349 142.504 612.755 142.801C612.161 143.09 611.462 143.234 610.657 143.234C610.04 143.234 609.47 143.148 608.946 142.977C608.431 142.797 607.985 142.52 607.61 142.145C607.243 141.762 606.954 141.273 606.743 140.68C606.54 140.078 606.439 139.355 606.439 138.512V130.32H609.814V138.535C609.814 138.91 609.857 139.227 609.943 139.484C610.036 139.742 610.165 139.953 610.329 140.117C610.493 140.281 610.685 140.398 610.903 140.469C611.13 140.539 611.38 140.574 611.653 140.574C612.349 140.574 612.896 140.434 613.294 140.152C613.7 139.871 613.985 139.488 614.15 139.004C614.321 138.512 614.407 137.965 614.407 137.363ZM628.194 140.234V125H631.592V143H628.534L628.194 140.234ZM620.178 136.812V136.566C620.178 135.598 620.288 134.719 620.506 133.93C620.725 133.133 621.045 132.449 621.467 131.879C621.889 131.309 622.409 130.867 623.026 130.555C623.643 130.242 624.346 130.086 625.135 130.086C625.877 130.086 626.526 130.242 627.08 130.555C627.643 130.867 628.12 131.312 628.51 131.891C628.909 132.461 629.229 133.137 629.471 133.918C629.713 134.691 629.889 135.539 629.998 136.461V137C629.889 137.883 629.713 138.703 629.471 139.461C629.229 140.219 628.909 140.883 628.51 141.453C628.12 142.016 627.643 142.453 627.08 142.766C626.518 143.078 625.862 143.234 625.112 143.234C624.323 143.234 623.62 143.074 623.002 142.754C622.393 142.434 621.877 141.984 621.455 141.406C621.041 140.828 620.725 140.148 620.506 139.367C620.288 138.586 620.178 137.734 620.178 136.812ZM623.553 136.566V136.812C623.553 137.336 623.592 137.824 623.67 138.277C623.756 138.73 623.893 139.133 624.08 139.484C624.276 139.828 624.526 140.098 624.83 140.293C625.143 140.48 625.522 140.574 625.967 140.574C626.545 140.574 627.022 140.445 627.397 140.188C627.772 139.922 628.057 139.559 628.252 139.098C628.455 138.637 628.573 138.105 628.604 137.504V135.969C628.58 135.477 628.51 135.035 628.393 134.645C628.284 134.246 628.12 133.906 627.901 133.625C627.69 133.344 627.424 133.125 627.104 132.969C626.791 132.812 626.42 132.734 625.991 132.734C625.553 132.734 625.178 132.836 624.866 133.039C624.553 133.234 624.299 133.504 624.104 133.848C623.916 134.191 623.776 134.598 623.682 135.066C623.596 135.527 623.553 136.027 623.553 136.566ZM638.511 130.32V143H635.125V130.32H638.511ZM634.914 127.016C634.914 126.523 635.086 126.117 635.429 125.797C635.773 125.477 636.234 125.316 636.812 125.316C637.383 125.316 637.84 125.477 638.183 125.797C638.535 126.117 638.711 126.523 638.711 127.016C638.711 127.508 638.535 127.914 638.183 128.234C637.84 128.555 637.383 128.715 636.812 128.715C636.234 128.715 635.773 128.555 635.429 128.234C635.086 127.914 634.914 127.508 634.914 127.016ZM641.481 136.789V136.543C641.481 135.613 641.614 134.758 641.88 133.977C642.145 133.188 642.532 132.504 643.04 131.926C643.548 131.348 644.173 130.898 644.915 130.578C645.657 130.25 646.509 130.086 647.47 130.086C648.431 130.086 649.286 130.25 650.036 130.578C650.786 130.898 651.415 131.348 651.923 131.926C652.438 132.504 652.829 133.188 653.095 133.977C653.36 134.758 653.493 135.613 653.493 136.543V136.789C653.493 137.711 653.36 138.566 653.095 139.355C652.829 140.137 652.438 140.82 651.923 141.406C651.415 141.984 650.79 142.434 650.048 142.754C649.306 143.074 648.454 143.234 647.493 143.234C646.532 143.234 645.677 143.074 644.927 142.754C644.185 142.434 643.556 141.984 643.04 141.406C642.532 140.82 642.145 140.137 641.88 139.355C641.614 138.566 641.481 137.711 641.481 136.789ZM644.856 136.543V136.789C644.856 137.32 644.903 137.816 644.997 138.277C645.091 138.738 645.239 139.145 645.442 139.496C645.653 139.84 645.927 140.109 646.263 140.305C646.599 140.5 647.009 140.598 647.493 140.598C647.962 140.598 648.364 140.5 648.7 140.305C649.036 140.109 649.306 139.84 649.509 139.496C649.712 139.145 649.86 138.738 649.954 138.277C650.056 137.816 650.106 137.32 650.106 136.789V136.543C650.106 136.027 650.056 135.543 649.954 135.09C649.86 134.629 649.708 134.223 649.497 133.871C649.294 133.512 649.024 133.23 648.688 133.027C648.353 132.824 647.946 132.723 647.47 132.723C646.993 132.723 646.587 132.824 646.251 133.027C645.923 133.23 645.653 133.512 645.442 133.871C645.239 134.223 645.091 134.629 644.997 135.09C644.903 135.543 644.856 136.027 644.856 136.543Z" fill="white"/>
<path d="M564.334 92.3332L567.667 95.6665C567.996 95.9948 568.385 96.2553 568.814 96.4329C569.243 96.6106 569.703 96.7021 570.167 96.7021C570.632 96.7021 571.091 96.6106 571.52 96.4329C571.949 96.2553 572.339 95.9948 572.667 95.6665C572.996 95.3382 573.256 94.9485 573.434 94.5195C573.611 94.0906 573.703 93.6308 573.703 93.1665C573.703 92.7022 573.611 92.2425 573.434 91.8135C573.256 91.3846 572.996 90.9948 572.667 90.6665M569.334 87.3332L573.501 91.4999C574.164 92.1629 575.063 92.5354 576.001 92.5354C576.938 92.5354 577.838 92.1629 578.501 91.4999C579.164 90.8368 579.536 89.9375 579.536 88.9999C579.536 88.0622 579.164 87.1629 578.501 86.4999L572.034 80.0332C571.096 79.0969 569.826 78.5709 568.501 78.5709C567.176 78.5709 565.905 79.0969 564.967 80.0332L563.501 81.4999C562.838 82.1629 561.938 82.5354 561.001 82.5354C560.063 82.5354 559.164 82.1629 558.501 81.4999C557.838 80.8368 557.465 79.9375 557.465 78.9999C557.465 78.0622 557.838 77.1629 558.501 76.4999L563.184 71.8165C564.704 70.3001 566.687 69.3341 568.818 69.0715C570.95 68.8089 573.108 69.2646 574.951 70.3665L575.734 70.8332C576.444 71.2615 577.287 71.4101 578.101 71.2499L581.001 70.6665M581.001 68.9999L582.667 87.3332H579.334M551.001 68.9999L549.334 87.3332L560.167 98.1665C560.83 98.8296 561.73 99.2021 562.667 99.2021C563.605 99.2021 564.504 98.8296 565.167 98.1665C565.83 97.5035 566.203 96.6042 566.203 95.6665C566.203 94.7288 565.83 93.8296 565.167 93.1665M551.001 70.6665H564.334" stroke="#3CE5A7" stroke-width="4" stroke-linecap="round" stroke-linejoin="round"/>
<path d="M735 48V176" stroke="#5781FF" stroke-width="2"/>
<path d="M838.178 129.291V136.052C837.912 136.373 837.502 136.72 836.948 137.095C836.393 137.463 835.678 137.779 834.803 138.045C833.928 138.31 832.869 138.443 831.627 138.443C830.526 138.443 829.522 138.263 828.615 137.904C827.709 137.537 826.928 137.002 826.272 136.298C825.623 135.595 825.123 134.736 824.772 133.72C824.42 132.697 824.244 131.529 824.244 130.216V129.15C824.244 127.838 824.412 126.67 824.748 125.646C825.092 124.623 825.58 123.759 826.213 123.056C826.846 122.353 827.6 121.818 828.475 121.451C829.35 121.084 830.323 120.9 831.393 120.9C832.877 120.9 834.096 121.142 835.049 121.627C836.002 122.103 836.729 122.767 837.229 123.619C837.737 124.463 838.049 125.431 838.166 126.525H834.756C834.67 125.947 834.506 125.443 834.264 125.013C834.022 124.584 833.674 124.248 833.221 124.005C832.776 123.763 832.198 123.642 831.487 123.642C830.901 123.642 830.377 123.763 829.916 124.005C829.463 124.24 829.08 124.588 828.768 125.048C828.455 125.509 828.217 126.08 828.053 126.759C827.889 127.439 827.807 128.228 827.807 129.127V130.216C827.807 131.107 827.893 131.896 828.065 132.584C828.237 133.263 828.49 133.838 828.826 134.306C829.17 134.767 829.592 135.115 830.092 135.349C830.592 135.584 831.174 135.701 831.838 135.701C832.393 135.701 832.854 135.654 833.221 135.56C833.596 135.466 833.897 135.353 834.123 135.22C834.358 135.08 834.537 134.947 834.662 134.822V131.798H831.451V129.291H838.178ZM847.359 138.443C846.375 138.443 845.492 138.287 844.71 137.974C843.929 137.654 843.265 137.213 842.718 136.65C842.179 136.088 841.765 135.435 841.476 134.693C841.187 133.943 841.043 133.146 841.043 132.302V131.834C841.043 130.873 841.179 129.994 841.453 129.197C841.726 128.4 842.117 127.709 842.625 127.123C843.14 126.537 843.765 126.088 844.5 125.775C845.234 125.455 846.062 125.295 846.984 125.295C847.882 125.295 848.679 125.443 849.375 125.74C850.07 126.037 850.652 126.459 851.121 127.005C851.597 127.552 851.957 128.209 852.199 128.974C852.441 129.732 852.562 130.576 852.562 131.505V132.912H842.484V130.662H849.246V130.404C849.246 129.935 849.16 129.517 848.988 129.15C848.824 128.775 848.574 128.478 848.238 128.259C847.902 128.041 847.472 127.931 846.949 127.931C846.503 127.931 846.121 128.029 845.8 128.224C845.48 128.42 845.218 128.693 845.015 129.045C844.82 129.396 844.671 129.81 844.57 130.287C844.476 130.755 844.429 131.271 844.429 131.834V132.302C844.429 132.81 844.5 133.279 844.64 133.709C844.789 134.138 844.996 134.509 845.261 134.822C845.535 135.134 845.863 135.377 846.246 135.548C846.636 135.72 847.078 135.806 847.57 135.806C848.179 135.806 848.746 135.689 849.269 135.455C849.8 135.213 850.257 134.849 850.64 134.365L852.281 136.146C852.015 136.529 851.652 136.896 851.191 137.248C850.738 137.599 850.191 137.888 849.55 138.115C848.91 138.334 848.179 138.443 847.359 138.443ZM861.415 125.529V127.92H854.032V125.529H861.415ZM855.86 122.4H859.235V134.388C859.235 134.755 859.282 135.037 859.376 135.232C859.477 135.427 859.626 135.564 859.821 135.642C860.016 135.713 860.263 135.748 860.559 135.748C860.77 135.748 860.958 135.74 861.122 135.724C861.294 135.701 861.438 135.677 861.555 135.654L861.567 138.138C861.278 138.232 860.966 138.306 860.63 138.361C860.294 138.416 859.923 138.443 859.516 138.443C858.774 138.443 858.126 138.322 857.571 138.08C857.024 137.83 856.602 137.431 856.305 136.884C856.009 136.338 855.86 135.619 855.86 134.728V122.4ZM874.48 121.146V138.209H870.964V121.146H874.48ZM881.277 128.435V131.177H873.519V128.435H881.277ZM882.097 121.146V123.9H873.519V121.146H882.097ZM891.887 135.173V125.529H895.262V138.209H892.087L891.887 135.173ZM892.262 132.572L893.258 132.548C893.258 133.392 893.161 134.177 892.965 134.904C892.77 135.623 892.477 136.248 892.087 136.779C891.696 137.302 891.204 137.713 890.61 138.009C890.016 138.298 889.317 138.443 888.512 138.443C887.895 138.443 887.325 138.357 886.801 138.185C886.286 138.005 885.84 137.728 885.465 137.353C885.098 136.97 884.809 136.482 884.598 135.888C884.395 135.287 884.294 134.564 884.294 133.72V125.529H887.669V133.744C887.669 134.119 887.712 134.435 887.798 134.693C887.891 134.951 888.02 135.162 888.184 135.326C888.348 135.49 888.54 135.607 888.758 135.677C888.985 135.748 889.235 135.783 889.508 135.783C890.204 135.783 890.751 135.642 891.149 135.361C891.555 135.08 891.84 134.697 892.005 134.213C892.176 133.72 892.262 133.173 892.262 132.572ZM901.865 128.236V138.209H898.49V125.529H901.654L901.865 128.236ZM901.373 131.423H900.459C900.459 130.486 900.58 129.642 900.822 128.892C901.064 128.134 901.404 127.49 901.842 126.959C902.279 126.42 902.799 126.009 903.4 125.728C904.01 125.439 904.689 125.295 905.439 125.295C906.033 125.295 906.576 125.38 907.068 125.552C907.56 125.724 907.982 125.998 908.334 126.373C908.693 126.748 908.967 127.244 909.154 127.861C909.35 128.478 909.447 129.232 909.447 130.123V138.209H906.049V130.111C906.049 129.548 905.971 129.111 905.814 128.798C905.658 128.486 905.428 128.267 905.123 128.142C904.826 128.009 904.459 127.943 904.021 127.943C903.568 127.943 903.174 128.033 902.838 128.213C902.51 128.392 902.236 128.642 902.018 128.963C901.807 129.275 901.646 129.642 901.537 130.064C901.428 130.486 901.373 130.939 901.373 131.423ZM920.222 135.443V120.209H923.62V138.209H920.562L920.222 135.443ZM912.206 132.021V131.775C912.206 130.806 912.316 129.927 912.534 129.138C912.753 128.341 913.073 127.658 913.495 127.088C913.917 126.517 914.437 126.076 915.054 125.763C915.671 125.451 916.374 125.295 917.163 125.295C917.905 125.295 918.554 125.451 919.109 125.763C919.671 126.076 920.148 126.521 920.538 127.099C920.937 127.67 921.257 128.345 921.499 129.127C921.741 129.9 921.917 130.748 922.027 131.67V132.209C921.917 133.091 921.741 133.912 921.499 134.67C921.257 135.427 920.937 136.091 920.538 136.662C920.148 137.224 919.671 137.662 919.109 137.974C918.546 138.287 917.89 138.443 917.14 138.443C916.351 138.443 915.648 138.283 915.03 137.963C914.421 137.642 913.905 137.193 913.484 136.615C913.07 136.037 912.753 135.357 912.534 134.576C912.316 133.795 912.206 132.943 912.206 132.021ZM915.581 131.775V132.021C915.581 132.545 915.62 133.033 915.698 133.486C915.784 133.939 915.921 134.341 916.109 134.693C916.304 135.037 916.554 135.306 916.859 135.502C917.171 135.689 917.55 135.783 917.995 135.783C918.573 135.783 919.05 135.654 919.425 135.396C919.8 135.13 920.085 134.767 920.28 134.306C920.484 133.845 920.601 133.314 920.632 132.713V131.177C920.609 130.685 920.538 130.244 920.421 129.853C920.312 129.455 920.148 129.115 919.929 128.834C919.718 128.552 919.452 128.334 919.132 128.177C918.82 128.021 918.448 127.943 918.019 127.943C917.581 127.943 917.206 128.045 916.894 128.248C916.581 128.443 916.327 128.713 916.132 129.056C915.945 129.4 915.804 129.806 915.71 130.275C915.624 130.736 915.581 131.236 915.581 131.775ZM932.813 138.443C931.829 138.443 930.946 138.287 930.165 137.974C929.383 137.654 928.719 137.213 928.172 136.65C927.633 136.088 927.219 135.435 926.93 134.693C926.641 133.943 926.497 133.146 926.497 132.302V131.834C926.497 130.873 926.633 129.994 926.907 129.197C927.18 128.4 927.571 127.709 928.079 127.123C928.594 126.537 929.219 126.088 929.954 125.775C930.688 125.455 931.516 125.295 932.438 125.295C933.336 125.295 934.133 125.443 934.829 125.74C935.524 126.037 936.106 126.459 936.575 127.005C937.051 127.552 937.411 128.209 937.653 128.974C937.895 129.732 938.016 130.576 938.016 131.505V132.912H927.938V130.662H934.7V130.404C934.7 129.935 934.614 129.517 934.442 129.15C934.278 128.775 934.028 128.478 933.692 128.259C933.356 128.041 932.926 127.931 932.403 127.931C931.958 127.931 931.575 128.029 931.254 128.224C930.934 128.42 930.672 128.693 930.469 129.045C930.274 129.396 930.125 129.81 930.024 130.287C929.93 130.755 929.883 131.271 929.883 131.834V132.302C929.883 132.81 929.954 133.279 930.094 133.709C930.243 134.138 930.45 134.509 930.715 134.822C930.989 135.134 931.317 135.377 931.7 135.548C932.09 135.72 932.532 135.806 933.024 135.806C933.633 135.806 934.2 135.689 934.723 135.455C935.254 135.213 935.711 134.849 936.094 134.365L937.735 136.146C937.469 136.529 937.106 136.896 936.645 137.248C936.192 137.599 935.645 137.888 935.004 138.115C934.364 138.334 933.633 138.443 932.813 138.443ZM948.146 135.443V120.209H951.545V138.209H948.486L948.146 135.443ZM940.131 132.021V131.775C940.131 130.806 940.24 129.927 940.459 129.138C940.678 128.341 940.998 127.658 941.42 127.088C941.842 126.517 942.361 126.076 942.978 125.763C943.595 125.451 944.299 125.295 945.088 125.295C945.83 125.295 946.478 125.451 947.033 125.763C947.595 126.076 948.072 126.521 948.463 127.099C948.861 127.67 949.181 128.345 949.424 129.127C949.666 129.9 949.842 130.748 949.951 131.67V132.209C949.842 133.091 949.666 133.912 949.424 134.67C949.181 135.427 948.861 136.091 948.463 136.662C948.072 137.224 947.595 137.662 947.033 137.974C946.47 138.287 945.814 138.443 945.064 138.443C944.275 138.443 943.572 138.283 942.955 137.963C942.345 137.642 941.83 137.193 941.408 136.615C940.994 136.037 940.678 135.357 940.459 134.576C940.24 133.795 940.131 132.943 940.131 132.021ZM943.506 131.775V132.021C943.506 132.545 943.545 133.033 943.623 133.486C943.709 133.939 943.845 134.341 944.033 134.693C944.228 135.037 944.478 135.306 944.783 135.502C945.095 135.689 945.474 135.783 945.92 135.783C946.498 135.783 946.974 135.654 947.349 135.396C947.724 135.13 948.01 134.767 948.205 134.306C948.408 133.845 948.525 133.314 948.556 132.713V131.177C948.533 130.685 948.463 130.244 948.345 129.853C948.236 129.455 948.072 129.115 947.853 128.834C947.642 128.552 947.377 128.334 947.056 128.177C946.744 128.021 946.373 127.943 945.943 127.943C945.506 127.943 945.131 128.045 944.818 128.248C944.506 128.443 944.252 128.713 944.056 129.056C943.869 129.4 943.728 129.806 943.635 130.275C943.549 130.736 943.506 131.236 943.506 131.775Z" fill="white"/>
<path d="M889 71V101M896.5 75.5H885.25C883.858 75.5 882.522 76.0531 881.538 77.0377C880.553 78.0223 880 79.3576 880 80.75C880 82.1424 880.553 83.4777 881.538 84.4623C882.522 85.4469 883.858 86 885.25 86H892.75C894.142 86 895.478 86.5531 896.462 87.5377C897.447 88.5223 898 89.8576 898 91.25C898 92.6424 897.447 93.9777 896.462 94.9623C895.478 95.9469 894.142 96.5 892.75 96.5H880" stroke="#3CE5A7" stroke-width="4" stroke-linecap="round" stroke-linejoin="round"/>
<defs>
<linearGradient id="paint0_linear_652_1360" x1="61" y1="-126" x2="874.821" y2="278.334" gradientUnits="userSpaceOnUse">
<stop stop-color="#3CE5B4"/>
<stop offset="0.375" stop-color="#114DFF"/>
<stop offset="1" stop-color="#031F75"/>
</linearGradient>
</defs>
</svg>
